<svg width="240" height="240" viewBox="0 0 240 240" fill="none" xmlns="http://www.w3.org/2000/svg">
<path d="M120 229.406C182.454 229.406 233.083 200.175 233.083 164.117C233.083 128.058 182.454 98.8271 120 98.8271C57.5461 98.8271 6.91699 128.058 6.91699 164.117C6.91699 200.175 57.5461 229.406 120 229.406Z" fill="#F0F0F0"/>
<path d="M96.6002 213.59C118.137 213.59 135.595 203.511 135.595 191.078C135.595 178.645 118.137 168.566 96.6002 168.566C75.0637 168.566 57.605 178.645 57.605 191.078C57.605 203.511 75.0637 213.59 96.6002 213.59Z" fill="#E0E0E0"/>
<path d="M207.494 162.912L202.92 160.272C202.92 160.272 201.801 150.48 202.545 142.896C203.592 132.24 210.475 119.414 218.683 122.429C226.891 125.443 214.92 136.291 212.256 145.33C209.592 154.368 207.494 162.912 207.494 162.912Z" fill="#117D77"/>
<path opacity="0.15" d="M207.494 162.912L202.92 160.272C202.92 160.272 201.801 150.48 202.545 142.896C203.592 132.24 210.475 119.414 218.683 122.429C226.891 125.443 214.92 136.291 212.256 145.33C209.592 154.368 207.494 162.912 207.494 162.912Z" fill="black"/>
<path d="M205.09 161.803C205.163 161.8 205.231 161.767 205.281 161.713C205.33 161.66 205.356 161.588 205.354 161.515C204.552 137.837 216.341 125.923 216.456 125.808C216.508 125.756 216.537 125.685 216.537 125.611C216.537 125.538 216.508 125.467 216.456 125.415C216.431 125.389 216.4 125.368 216.367 125.355C216.334 125.341 216.298 125.333 216.262 125.333C216.225 125.333 216.19 125.341 216.156 125.355C216.123 125.368 216.093 125.389 216.067 125.415C215.942 125.53 203.986 137.616 204.797 161.535C204.798 161.572 204.807 161.608 204.822 161.642C204.838 161.675 204.86 161.705 204.887 161.73C204.914 161.755 204.946 161.775 204.981 161.787C205.016 161.8 205.053 161.805 205.09 161.803Z" fill="white"/>
<path d="M210.369 164.558L207.115 162.682C207.115 162.682 206.558 155.962 209.856 147.802C212.736 140.698 219.84 134.798 223.421 136.037C227.001 137.275 226.91 139.814 225.163 142.478C223.416 145.142 212.803 151.483 210.369 164.558Z" fill="#117D77"/>
<path d="M208.651 163.848C208.725 163.847 208.795 163.817 208.847 163.765C208.899 163.713 208.928 163.643 208.93 163.57C208.862 148.594 222.922 138.475 223.066 138.374C223.096 138.354 223.121 138.327 223.141 138.297C223.16 138.266 223.173 138.232 223.179 138.196C223.185 138.16 223.183 138.123 223.175 138.088C223.166 138.053 223.15 138.019 223.128 137.99C223.086 137.931 223.022 137.891 222.95 137.878C222.878 137.866 222.804 137.882 222.744 137.923C222.6 138.024 208.31 148.315 208.373 163.57C208.373 163.643 208.402 163.714 208.454 163.767C208.507 163.819 208.577 163.848 208.651 163.848Z" fill="white"/>
<path d="M38.2367 157.032L42.4607 154.181C42.4607 154.181 44.3183 143.141 42.5903 133.402C40.1615 119.741 30.7199 115.2 27.3599 116.64C23.9999 118.08 23.2799 122.146 29.5535 129.941C33.2735 134.525 38.1071 144.312 38.2367 157.032Z" fill="#117D77"/>
<g opacity="0.15">
<path d="M38.2367 157.032L42.4607 154.181C42.4607 154.181 44.3183 143.141 42.5903 133.402C40.1615 119.741 30.7199 115.2 27.3599 116.64C23.9999 118.08 23.2799 122.146 29.5535 129.941C33.2735 134.525 38.1071 144.312 38.2367 157.032Z" fill="black"/>
</g>
<path d="M39.6863 151.56H39.6431C39.6 151.557 39.5579 151.546 39.5196 151.526C39.4813 151.505 39.4477 151.477 39.421 151.443C39.3943 151.409 39.375 151.37 39.3645 151.328C39.354 151.286 39.3524 151.243 39.3599 151.2C40.8863 138.341 35.4575 124.383 29.5487 118.829C29.4919 118.771 29.46 118.694 29.46 118.613C29.46 118.532 29.4919 118.454 29.5487 118.397C29.5769 118.368 29.6105 118.345 29.6476 118.33C29.6847 118.314 29.7245 118.306 29.7647 118.306C29.805 118.306 29.8448 118.314 29.8819 118.33C29.919 118.345 29.9526 118.368 29.9807 118.397C35.9999 124.051 41.5295 138.24 39.9839 151.287C39.9749 151.36 39.9399 151.428 39.8854 151.478C39.8309 151.528 39.7603 151.557 39.6863 151.56Z" fill="white"/>
<path d="M27.1775 164.491C26.5055 164.894 24.5471 163.44 24.0047 163.09C23.0752 162.483 22.318 161.646 21.8063 160.661C21.2324 159.543 21.0194 158.276 21.1967 157.032C21.2951 156.383 21.4378 155.741 21.6239 155.112C21.7919 154.483 21.9599 153.854 22.1039 153.221C22.3168 152.605 22.3986 151.951 22.3439 151.301C22.1567 150.019 20.9999 149.141 19.9439 148.387C18.7823 147.547 17.5439 146.438 17.5439 144.893C17.6032 143.678 18.0679 142.519 18.8639 141.6C19.5839 140.64 20.4479 139.805 21.0959 138.802C21.6027 138.106 21.8613 137.261 21.8303 136.402C21.7469 135.872 21.5575 135.364 21.2735 134.909C20.7071 133.91 19.9727 132.989 19.5743 131.928C19.1759 130.867 19.2047 129.504 20.0543 128.712C20.7311 128.064 21.7631 127.958 22.6991 128.002C23.5811 128.089 24.4332 128.37 25.1951 128.822C27.6767 130.142 29.1359 133.022 31.7615 134.026C32.7743 134.41 33.8783 134.477 34.9295 134.736C35.9807 134.995 37.0655 135.509 37.5695 136.464C38.5631 138.36 36.8303 140.75 37.5407 142.762C38.1743 144.547 39.9407 145.2 40.9391 146.798C41.3444 147.508 41.5125 148.329 41.4191 149.141C41.3628 150.512 41.0553 151.86 40.5119 153.12C39.887 154.426 39.1816 155.693 38.3999 156.912C38.3999 156.912 27.2783 164.429 27.1775 164.491Z" fill="#117D77"/>
<path d="M33.6673 160.512C33.627 160.511 33.5871 160.503 33.5501 160.487C33.5131 160.471 33.4796 160.448 33.4515 160.419C33.4234 160.39 33.4013 160.355 33.3864 160.318C33.3716 160.28 33.3643 160.24 33.3649 160.2C33.6337 148.046 27.6529 134.76 23.4193 130.92C23.3591 130.866 23.3228 130.79 23.3183 130.709C23.3138 130.628 23.3415 130.549 23.3953 130.488C23.4235 130.459 23.4571 130.436 23.4941 130.421C23.5312 130.405 23.5711 130.397 23.6113 130.397C23.6515 130.397 23.6914 130.405 23.7284 130.421C23.7655 130.436 23.7991 130.459 23.8273 130.488C28.1473 134.376 34.2481 147.893 33.9745 160.214C33.9739 160.254 33.9654 160.293 33.9497 160.33C33.9339 160.366 33.9111 160.399 33.8825 160.427C33.854 160.454 33.8203 160.476 33.7834 160.491C33.7465 160.505 33.707 160.513 33.6673 160.512Z" fill="white"/>
<path d="M31.4255 145.704C31.3971 145.711 31.3674 145.711 31.3391 145.704C27.4127 144.571 22.5455 144.456 22.4975 144.451C22.4573 144.451 22.4177 144.442 22.381 144.426C22.3442 144.41 22.311 144.387 22.2833 144.358C22.2556 144.329 22.2339 144.294 22.2196 144.257C22.2053 144.219 22.1986 144.179 22.1999 144.139C22.1991 144.099 22.2068 144.059 22.2224 144.021C22.238 143.984 22.2612 143.95 22.2905 143.922C22.3198 143.894 22.3547 143.872 22.3928 143.859C22.4309 143.845 22.4714 143.839 22.5119 143.842C22.5599 143.842 27.5039 143.962 31.5071 145.114C31.5844 145.137 31.6495 145.19 31.6881 145.261C31.7267 145.332 31.7358 145.415 31.7135 145.493C31.6948 145.555 31.6566 145.608 31.6047 145.646C31.5527 145.685 31.4899 145.705 31.4255 145.704Z" fill="white"/>
<path d="M144.557 148.675L142.738 147.624C142.435 147.427 142.182 147.162 142.001 146.849C141.82 146.536 141.716 146.185 141.696 145.824V70.2145C141.716 69.8543 141.82 69.5037 142 69.191C142.18 68.8784 142.431 68.6124 142.733 68.4145L193.301 39.2209C193.623 39.0577 193.979 38.9727 194.34 38.9727C194.701 38.9727 195.057 39.0577 195.379 39.2209L197.199 40.2721C197.502 40.4689 197.754 40.7345 197.935 41.0473C198.116 41.3601 198.221 41.7112 198.24 42.0721V117.682C198.22 118.042 198.116 118.393 197.936 118.705C197.756 119.018 197.505 119.284 197.203 119.482L146.635 148.68C146.313 148.844 145.957 148.929 145.596 148.928C145.234 148.927 144.878 148.84 144.557 148.675Z" fill="#455A64"/>
<path d="M198.24 41.9041C198.168 41.3665 197.731 41.1697 197.208 41.4721L146.635 70.6705C146.33 70.8624 146.077 71.1281 145.901 71.4433L141.999 69.1921C142.173 68.8746 142.426 68.6069 142.733 68.4145L193.301 39.2209C193.623 39.0577 193.979 38.9727 194.34 38.9727C194.701 38.9727 195.057 39.0577 195.379 39.2209L197.199 40.2721C197.48 40.453 197.718 40.6925 197.898 40.9742C198.078 41.2559 198.194 41.5731 198.24 41.9041Z" fill="#455A64"/>
<path d="M146.458 148.762C146.15 148.886 145.82 148.943 145.489 148.929C145.157 148.915 144.833 148.83 144.538 148.68L142.714 147.624C142.412 147.426 142.161 147.16 141.981 146.848C141.801 146.535 141.697 146.184 141.677 145.824V70.2145C141.689 69.8536 141.793 69.5017 141.979 69.1921L145.882 71.4433C145.692 71.7533 145.586 72.1073 145.574 72.4705V148.08C145.594 148.675 145.968 148.949 146.458 148.762Z" fill="#263238"/>
<path d="M145.594 72.4801V148.08C145.594 148.743 146.074 149.011 146.635 148.68L197.203 119.482C197.505 119.284 197.756 119.018 197.936 118.705C198.116 118.393 198.22 118.042 198.24 117.682V42.0721C198.24 41.4097 197.76 41.1409 197.203 41.4721L146.635 70.6705C146.331 70.8683 146.078 71.1354 145.897 71.45C145.716 71.7645 145.612 72.1176 145.594 72.4801Z" fill="#37474F"/>
<path d="M133.786 101.28C133.133 100.891 130.104 99.1681 129.946 99.0769C129.822 99.0032 129.717 98.9028 129.637 98.783C129.558 98.6632 129.507 98.5271 129.487 98.3848C129.467 98.2424 129.479 98.0974 129.523 97.9605C129.567 97.8236 129.641 97.6982 129.739 97.5937L141.696 84.7681L145.594 87.0049L133.642 99.8401C133.548 99.94 133.476 100.059 133.432 100.189C133.388 100.319 133.373 100.456 133.386 100.593C133.4 100.729 133.443 100.861 133.511 100.98C133.58 101.098 133.674 101.201 133.786 101.28Z" fill="#455A64"/>
<path d="M145.594 87.0193L133.642 99.8401C133.509 99.9818 133.422 100.16 133.393 100.352C133.364 100.544 133.394 100.741 133.479 100.915C133.563 101.09 133.699 101.235 133.868 101.331C134.037 101.427 134.231 101.469 134.424 101.453L145.594 100.531V87.0193Z" fill="#37474F"/>
<path d="M171.917 63.9362C177.811 60.533 182.587 63.293 182.587 70.0994C182.587 76.9058 177.811 85.1762 171.917 88.5794C166.023 91.9826 161.247 89.2226 161.247 82.421C161.247 75.6194 166.023 67.3394 171.917 63.9362Z" fill="#117D77"/>
<path d="M171.84 69.2929C173.76 68.1889 175.301 69.0817 175.301 71.2897C175.236 72.4899 174.888 73.6579 174.287 74.6987C173.685 75.7395 172.847 76.6239 171.84 77.2801C169.92 78.3841 168.375 77.4913 168.375 75.2833C168.44 74.0826 168.789 72.9144 169.391 71.8736C169.993 70.8327 170.832 69.9486 171.84 69.2929Z" fill="white"/>
<path d="M178.666 81.0626C178.666 77.4386 176.117 75.965 172.978 77.7794L171.015 78.9122C167.875 80.7266 165.327 85.1522 165.327 88.7666V89.7602C165.919 89.9496 166.538 90.0452 167.16 90.0434C168.844 89.9862 170.484 89.4897 171.917 88.6034C174.646 86.9227 176.954 84.6406 178.666 81.9314V81.0626Z" fill="white"/>
<path d="M165.158 122.271L178.675 114.466C179.251 114.135 179.717 114.403 179.717 115.066V119.419C179.697 119.78 179.593 120.131 179.412 120.444C179.231 120.757 178.978 121.023 178.675 121.219L165.158 129.024C164.582 129.355 164.117 129.087 164.117 128.424V124.071C164.136 123.71 164.241 123.359 164.422 123.046C164.603 122.733 164.855 122.467 165.158 122.271Z" fill="#117D77"/>
<path d="M158.539 112.546L185.28 97.0994C185.967 96.701 186.528 97.0226 186.528 97.8194V99.437C186.505 99.8698 186.379 100.291 186.163 100.666C185.946 101.042 185.643 101.361 185.28 101.597L158.525 117.043C157.839 117.442 157.282 117.12 157.282 116.323V114.72C157.304 114.284 157.429 113.859 157.648 113.481C157.866 113.103 158.172 112.782 158.539 112.546Z" fill="#FAFAFA"/>
<path d="M161.669 101.367C162.034 101.155 162.317 101.122 162.518 101.271C162.72 101.419 162.821 101.751 162.821 102.259C162.831 102.724 162.727 103.184 162.518 103.599C162.33 103.974 162.034 104.284 161.669 104.491L160.949 104.909V106.459C160.947 106.513 160.934 106.565 160.91 106.613C160.894 106.656 160.863 106.693 160.824 106.719L160.459 106.93C160.447 106.939 160.432 106.944 160.416 106.944C160.4 106.944 160.385 106.939 160.373 106.93C160.347 106.897 160.335 106.856 160.339 106.815V102.327C160.339 102.274 160.35 102.221 160.373 102.173C160.391 102.13 160.421 102.094 160.459 102.067L161.669 101.367ZM160.949 104.04L161.645 103.637C161.813 103.542 161.955 103.407 162.058 103.243C162.167 103.051 162.22 102.831 162.211 102.61C162.211 102.351 162.158 102.202 162.058 102.159C161.986 102.141 161.912 102.14 161.841 102.156C161.769 102.172 161.702 102.204 161.645 102.25L160.949 102.653V104.04Z" fill="#FAFAFA"/>
<path d="M164.832 99.5377C164.88 99.5089 164.918 99.5089 164.942 99.5377C164.973 99.5808 164.994 99.6298 165.005 99.6817L166.113 103.435C166.113 103.435 166.113 103.464 166.113 103.479C166.113 103.532 166.1 103.585 166.075 103.632C166.058 103.676 166.028 103.713 165.989 103.738L165.662 103.925C165.605 103.959 165.561 103.963 165.537 103.925C165.514 103.901 165.498 103.871 165.489 103.839L165.293 103.181L163.853 104.007L163.661 104.89C163.647 104.938 163.629 104.984 163.608 105.029C163.584 105.087 163.54 105.135 163.483 105.163L163.157 105.351C163.145 105.361 163.129 105.366 163.113 105.366C163.098 105.366 163.082 105.361 163.07 105.351C163.045 105.319 163.033 105.28 163.037 105.24C163.034 105.223 163.034 105.205 163.037 105.187L164.141 100.157C164.154 100.083 164.175 100.011 164.203 99.9409C164.227 99.8905 164.265 99.8485 164.313 99.8209L164.832 99.5377ZM165.081 102.447L164.601 100.752L164.121 103.018L165.081 102.447Z" fill="#FAFAFA"/>
<path d="M167.794 97.7568C167.954 97.6555 168.137 97.5945 168.326 97.5792C168.46 97.5672 168.595 97.5974 168.71 97.6656C168.816 97.734 168.898 97.8328 168.946 97.9488C168.998 98.067 169.027 98.1941 169.032 98.3232C169.035 98.3766 169.024 98.4298 168.998 98.4768C168.982 98.5203 168.951 98.5573 168.912 98.5824L168.595 98.7648C168.542 98.7936 168.504 98.7984 168.48 98.7648C168.45 98.7453 168.426 98.719 168.408 98.688C168.389 98.6449 168.361 98.606 168.326 98.5738C168.292 98.5417 168.251 98.5168 168.206 98.5008C168.06 98.4799 167.912 98.5179 167.794 98.6064C167.716 98.6566 167.642 98.7128 167.573 98.7744C167.502 98.84 167.439 98.9142 167.386 98.9952C167.335 99.0734 167.293 99.1571 167.261 99.2448C167.233 99.3283 167.218 99.4159 167.218 99.504C167.212 99.5848 167.227 99.6657 167.261 99.7392C167.276 99.765 167.296 99.7868 167.322 99.8027C167.347 99.8186 167.375 99.8281 167.405 99.8304C167.494 99.8459 167.585 99.8459 167.674 99.8304L168.091 99.7392C168.247 99.6931 168.409 99.6737 168.571 99.6816C168.687 99.6813 168.8 99.7183 168.893 99.7872C168.981 99.8612 169.044 99.9599 169.075 100.07C169.122 100.226 169.143 100.388 169.138 100.55C169.137 100.765 169.107 100.978 169.046 101.184C168.988 101.396 168.902 101.599 168.792 101.789C168.676 101.983 168.537 102.164 168.379 102.326C168.218 102.494 168.034 102.638 167.832 102.754C167.684 102.844 167.522 102.907 167.352 102.941C167.214 102.967 167.071 102.956 166.939 102.907C166.819 102.851 166.72 102.759 166.656 102.643C166.578 102.495 166.535 102.331 166.531 102.163C166.531 102.109 166.542 102.055 166.565 102.005C166.586 101.964 166.618 101.929 166.656 101.904L166.973 101.722C167.021 101.693 167.059 101.683 167.088 101.698C167.117 101.712 167.136 101.736 167.155 101.779C167.175 101.829 167.201 101.875 167.232 101.918C167.262 101.96 167.304 101.992 167.352 102.01C167.415 102.024 167.481 102.024 167.544 102.01C167.646 101.986 167.743 101.945 167.832 101.89C167.925 101.837 168.013 101.776 168.096 101.707C168.257 101.58 168.386 101.415 168.47 101.227C168.509 101.131 168.528 101.028 168.528 100.925C168.533 100.887 168.529 100.849 168.519 100.813C168.508 100.776 168.49 100.743 168.466 100.714C168.44 100.691 168.409 100.674 168.376 100.664C168.343 100.654 168.308 100.651 168.274 100.656C168.165 100.661 168.057 100.678 167.952 100.709C167.827 100.738 167.683 100.771 167.515 100.8C167.387 100.832 167.254 100.842 167.122 100.829C167.018 100.822 166.919 100.78 166.843 100.709C166.76 100.628 166.702 100.524 166.675 100.411C166.637 100.244 166.619 100.074 166.622 99.9024C166.622 99.6911 166.653 99.4809 166.714 99.2784C166.771 99.0702 166.855 98.8701 166.963 98.6832C167.067 98.4977 167.193 98.3253 167.338 98.1696C167.469 98.0111 167.623 97.8721 167.794 97.7568Z" fill="#FAFAFA"/>
<path d="M170.947 95.9426C171.107 95.8381 171.29 95.7754 171.48 95.7602C171.614 95.7488 171.748 95.7789 171.864 95.8466C171.967 95.9167 172.047 96.0151 172.095 96.1298C172.147 96.2479 172.176 96.375 172.181 96.5042C172.187 96.5576 172.175 96.6115 172.147 96.6578C172.131 96.7012 172.1 96.7382 172.061 96.7634L171.744 96.9458C171.696 96.9746 171.658 96.9842 171.629 96.9458C171.598 96.9265 171.575 96.8979 171.562 96.8642C171.518 96.7799 171.444 96.7149 171.355 96.6818C171.284 96.6713 171.211 96.6752 171.141 96.6933C171.071 96.7115 171.005 96.7434 170.947 96.7874C170.867 96.8363 170.792 96.8926 170.722 96.9554C170.652 97.0211 170.591 97.0952 170.539 97.1762C170.487 97.2532 170.445 97.3372 170.415 97.4258C170.385 97.509 170.369 97.5965 170.367 97.685C170.361 97.7658 170.376 97.8467 170.41 97.9202C170.425 97.9459 170.445 97.9677 170.471 97.9836C170.496 97.9995 170.524 98.009 170.554 98.0114C170.643 98.0269 170.734 98.0269 170.823 98.0114L171.24 97.9202C171.396 97.8767 171.558 97.8572 171.72 97.8626C171.836 97.8615 171.949 97.8986 172.042 97.9682C172.13 98.0431 172.194 98.1413 172.229 98.2514C172.271 98.4077 172.291 98.5694 172.287 98.7314C172.286 98.9458 172.256 99.1591 172.195 99.365C172.137 99.5766 172.051 99.7799 171.941 99.9698C171.825 100.166 171.687 100.348 171.528 100.512C171.366 100.675 171.184 100.817 170.986 100.935C170.838 101.024 170.675 101.088 170.506 101.122C170.369 101.148 170.228 101.136 170.098 101.088C169.975 101.034 169.874 100.941 169.81 100.824C169.731 100.676 169.69 100.512 169.69 100.344C169.684 100.291 169.696 100.237 169.723 100.191C169.74 100.147 169.771 100.11 169.81 100.085L170.127 99.9026C170.175 99.8738 170.218 99.8642 170.242 99.8786C170.259 99.8861 170.273 99.8974 170.285 99.9116C170.297 99.9257 170.305 99.9423 170.309 99.9602C170.331 100.009 170.356 100.055 170.386 100.099C170.417 100.142 170.461 100.173 170.511 100.191C170.574 100.205 170.639 100.205 170.703 100.191C170.805 100.167 170.902 100.126 170.991 100.071C171.081 100.016 171.168 99.9553 171.25 99.8882C171.334 99.8224 171.409 99.7448 171.471 99.6578C171.533 99.5749 171.584 99.4846 171.624 99.389C171.663 99.2928 171.682 99.1901 171.682 99.0866C171.686 99.049 171.683 99.0108 171.672 98.9745C171.662 98.9382 171.644 98.9045 171.619 98.8754C171.594 98.8525 171.563 98.8355 171.53 98.8256C171.497 98.8156 171.462 98.813 171.427 98.8178C171.32 98.8243 171.214 98.842 171.111 98.8706C170.986 98.8994 170.837 98.933 170.674 98.9618C170.544 98.9939 170.409 99.0037 170.275 98.9906C170.171 98.9851 170.073 98.9425 169.997 98.8706C169.916 98.7888 169.859 98.6856 169.834 98.573C169.791 98.4085 169.772 98.2388 169.776 98.069C169.778 97.8562 169.809 97.6447 169.867 97.4402C169.927 97.2326 170.011 97.0328 170.117 96.845C170.221 96.6582 170.348 96.4856 170.496 96.3314C170.626 96.1791 170.778 96.0479 170.947 95.9426Z" fill="#FAFAFA"/>
<path d="M174.447 96.5425L174.058 98.8417C174.046 98.9109 174.027 98.9785 174 99.0433C173.982 99.095 173.946 99.139 173.899 99.1681L173.535 99.3793C173.487 99.4081 173.453 99.4081 173.429 99.3793C173.397 99.3398 173.378 99.291 173.376 99.2401L172.8 95.1841C172.8 95.1841 172.8 95.1457 172.8 95.1313C172.802 95.0779 172.815 95.0255 172.839 94.9777C172.857 94.935 172.887 94.8984 172.925 94.8721L173.256 94.6801C173.284 94.6689 173.315 94.6689 173.343 94.6801C173.371 94.6801 173.391 94.7185 173.4 94.7953L173.779 97.5265L174.111 95.4769C174.119 95.4258 174.134 95.3759 174.154 95.3281C174.173 95.2674 174.214 95.216 174.269 95.1841L174.639 94.9681C174.691 94.9393 174.73 94.9441 174.754 94.9681C174.775 94.9986 174.789 95.0328 174.797 95.0689L175.133 96.7345L175.512 93.5665C175.517 93.5042 175.535 93.4436 175.565 93.3889C175.588 93.353 175.617 93.322 175.651 93.2977L175.983 93.1057C175.995 93.0964 176.01 93.0913 176.026 93.0913C176.041 93.0913 176.057 93.0964 176.069 93.1057C176.083 93.1214 176.093 93.1397 176.1 93.1595C176.106 93.1793 176.109 93.2001 176.108 93.2209C176.109 93.2401 176.109 93.2594 176.108 93.2785L175.531 97.9969C175.522 98.0659 175.504 98.1336 175.479 98.1985C175.457 98.2497 175.42 98.2932 175.373 98.3233L175.003 98.5345C174.96 98.5585 174.927 98.5585 174.903 98.5345C174.878 98.4904 174.859 98.4437 174.845 98.3953L174.447 96.5425Z" fill="#FAFAFA"/>
<path d="M176.693 94.5072C176.704 94.2411 176.736 93.9762 176.789 93.7152C176.844 93.4601 176.928 93.2121 177.039 92.976C177.144 92.7464 177.28 92.5318 177.442 92.3376C177.606 92.145 177.803 91.9825 178.023 91.8576C178.192 91.7429 178.39 91.678 178.594 91.6704C178.746 91.6721 178.892 91.7322 179.002 91.8384C179.118 91.9691 179.202 92.1253 179.247 92.2944C179.309 92.5149 179.342 92.7423 179.347 92.9712C179.347 93.0576 179.347 93.1536 179.347 93.2592C179.347 93.3648 179.347 93.4752 179.347 93.5904C179.347 93.7056 179.347 93.816 179.347 93.9216C179.347 94.0272 179.347 94.128 179.347 94.2192C179.337 94.4838 179.305 94.7471 179.251 95.0064C179.196 95.2607 179.114 95.5085 179.007 95.7456C178.898 95.9745 178.761 96.1889 178.599 96.384C178.435 96.5748 178.24 96.737 178.023 96.864C177.85 96.9779 177.649 97.0426 177.442 97.0512C177.367 97.0527 177.293 97.0391 177.224 97.011C177.154 96.9829 177.091 96.9411 177.039 96.888C176.913 96.7536 176.827 96.5877 176.789 96.408C176.732 96.1867 176.7 95.9597 176.693 95.7312C176.693 95.6448 176.693 95.5488 176.693 95.4432C176.693 95.3376 176.693 95.2272 176.693 95.112C176.693 94.9968 176.693 94.8912 176.693 94.7808C176.693 94.6704 176.688 94.5936 176.693 94.5072ZM178.738 93.36C178.749 93.2426 178.735 93.1242 178.699 93.012C178.663 92.8998 178.604 92.7961 178.527 92.7072C178.402 92.5968 178.229 92.6016 178.023 92.7072C177.799 92.8389 177.621 93.0368 177.514 93.2736C177.378 93.5534 177.306 93.8601 177.303 94.1712C177.303 94.3488 177.303 94.5456 177.303 94.7616C177.303 94.9776 177.303 95.1696 177.303 95.3424C177.292 95.4598 177.305 95.5782 177.341 95.6904C177.378 95.8026 177.436 95.9063 177.514 95.9952C177.639 96.1008 177.811 96.0912 178.023 95.9712C178.243 95.8386 178.419 95.643 178.527 95.4096C178.663 95.1315 178.735 94.8265 178.738 94.5168C178.738 94.3344 178.738 94.1376 178.738 93.9216C178.738 93.7056 178.743 93.5328 178.738 93.36Z" fill="#FAFAFA"/>
<path d="M181.44 89.9426C181.819 89.7266 182.102 89.693 182.299 89.8514C182.416 89.9799 182.503 90.1326 182.553 90.2986C182.604 90.4646 182.617 90.6397 182.592 90.8114C182.596 91.1374 182.546 91.4618 182.443 91.7714C182.346 92.0597 182.194 92.3269 181.997 92.5586L182.621 93.917C182.623 93.9393 182.623 93.9618 182.621 93.9842C182.621 94.0275 182.611 94.0702 182.592 94.109C182.579 94.1438 182.555 94.1739 182.525 94.1954L182.141 94.4162C182.078 94.4498 182.035 94.4546 182.006 94.4162C181.981 94.391 181.96 94.3618 181.944 94.3298L181.354 93.0482L180.754 93.3938V95.0162C180.754 95.0692 180.743 95.1217 180.72 95.1698C180.7 95.2115 180.671 95.2477 180.634 95.2754L180.269 95.4866C180.257 95.4967 180.241 95.5023 180.226 95.5023C180.21 95.5023 180.195 95.4967 180.182 95.4866C180.169 95.4719 180.158 95.4545 180.152 95.4355C180.145 95.4164 180.142 95.3962 180.144 95.3762V90.8882C180.145 90.8348 180.159 90.7823 180.182 90.7346C180.199 90.6911 180.23 90.6542 180.269 90.629L181.44 89.9426ZM180.763 92.525L181.44 92.1602C181.605 92.0678 181.747 91.938 181.853 91.781C181.964 91.596 182.018 91.3821 182.006 91.1666C182.006 90.9074 181.954 90.7634 181.853 90.7346C181.707 90.7147 181.559 90.7526 181.44 90.8402L180.787 91.2146L180.763 92.525Z" fill="#FAFAFA"/>
<path d="M184.656 88.0946C184.83 87.9809 185.03 87.9117 185.237 87.893C185.387 87.8874 185.533 87.9408 185.645 88.0418C185.772 88.1755 185.86 88.3415 185.899 88.5218C185.964 88.7598 185.999 89.0048 186.005 89.2514C186.005 89.5874 186.005 89.933 186.005 90.2834C185.995 90.5691 185.96 90.8535 185.899 91.133C185.844 91.3927 185.761 91.6455 185.65 91.8866C185.543 92.108 185.407 92.3146 185.246 92.501C185.086 92.6918 184.895 92.8541 184.68 92.981L183.542 93.6002C183.53 93.6103 183.515 93.6159 183.499 93.6159C183.483 93.6159 183.468 93.6103 183.456 93.6002C183.442 93.5857 183.431 93.5683 183.425 93.5492C183.418 93.5301 183.416 93.5099 183.418 93.4898V89.0018C183.419 88.9484 183.432 88.8959 183.456 88.8482C183.473 88.8047 183.503 88.7678 183.542 88.7426L184.656 88.0946ZM185.395 89.5874C185.393 89.4574 185.374 89.3283 185.338 89.2034C185.315 89.1089 185.267 89.0224 185.198 88.9538C185.168 88.9236 185.132 88.9 185.093 88.8843C185.053 88.8686 185.011 88.8612 184.968 88.8626C184.848 88.8706 184.732 88.9103 184.632 88.9778L184.027 89.3234V92.453L184.656 92.093C184.778 92.0221 184.886 91.9313 184.978 91.8242C185.067 91.7189 185.143 91.6028 185.203 91.4786C185.263 91.3463 185.308 91.2079 185.338 91.0658C185.371 90.9175 185.39 90.7665 185.395 90.6146C185.41 90.2642 185.41 89.9234 185.395 89.5874Z" fill="#FAFAFA"/>
<path d="M118.742 18.4271C119.571 18.6115 120.369 18.9121 121.113 19.3199C121.826 19.7031 122.465 20.2102 123 20.8175C123.512 21.4017 123.891 22.0893 124.113 22.8335C124.34 23.6302 124.356 24.4718 124.161 25.2767C124.033 25.9149 123.78 26.5216 123.417 27.0623C123.086 27.5248 122.692 27.9384 122.246 28.2911C121.808 28.6312 121.341 28.9316 120.849 29.1887L119.467 29.9231C119.051 30.1403 118.655 30.3958 118.286 30.6863C117.952 30.9425 117.696 31.2865 117.547 31.6799C117.474 31.8597 117.353 32.0158 117.197 32.1311C117.123 32.1885 117.037 32.2283 116.945 32.2474C116.854 32.2665 116.759 32.2645 116.669 32.2415L114.633 31.7903C114.535 31.7698 114.442 31.7299 114.36 31.6731C114.278 31.6162 114.207 31.5435 114.153 31.4591C114.096 31.3807 114.058 31.2899 114.042 31.194C114.026 31.0981 114.033 30.9999 114.062 30.9071C114.226 30.2768 114.515 29.6859 114.912 29.1695C115.274 28.7128 115.693 28.3046 116.16 27.9551C116.614 27.6225 117.096 27.3286 117.6 27.0767C118.08 26.8319 118.56 26.5967 118.977 26.3615C119.366 26.1527 119.731 25.9033 120.067 25.6175C120.362 25.3708 120.566 25.0331 120.648 24.6575C120.724 24.3314 120.72 23.9917 120.637 23.6673C120.553 23.343 120.392 23.0437 120.168 22.7951C119.607 22.1823 118.856 21.7751 118.037 21.6383C116.52 21.3023 115.24 21.8127 114.197 23.1695C114.096 23.3176 113.969 23.4461 113.822 23.5487C113.656 23.6309 113.465 23.6447 113.289 23.5871L111.125 23.1071C110.97 23.0773 110.834 22.9876 110.745 22.8575C110.698 22.7881 110.666 22.7092 110.652 22.6264C110.638 22.5436 110.642 22.4587 110.664 22.3775C110.848 21.7106 111.19 21.0979 111.662 20.5919C112.194 20.0051 112.827 19.5175 113.529 19.1519C114.298 18.7499 115.126 18.4744 115.982 18.3359C116.899 18.1868 117.837 18.2177 118.742 18.4271ZM116.443 33.8735C116.633 33.9182 116.799 34.0357 116.904 34.2007C117.009 34.3658 117.045 34.5653 117.005 34.7567L116.486 37.1087C116.469 37.2072 116.43 37.3009 116.374 37.3836C116.318 37.4663 116.245 37.5362 116.16 37.5887C116.079 37.6441 115.988 37.6821 115.893 37.7003C115.797 37.7185 115.698 37.7165 115.603 37.6943L113.28 37.1615C113.181 37.1449 113.087 37.1071 113.004 37.0508C112.921 36.9944 112.852 36.9209 112.8 36.8351C112.746 36.7541 112.709 36.6629 112.692 36.5671C112.675 36.4714 112.677 36.3731 112.699 36.2783L113.222 33.9263C113.267 33.7357 113.384 33.5699 113.549 33.4642C113.714 33.3585 113.913 33.3211 114.105 33.3599L116.443 33.8735Z" fill="#117D77"/>
<path d="M121.305 40.9439C121.883 40.8512 122.472 40.8399 123.053 40.9103C123.608 40.9763 124.147 41.1387 124.646 41.3903C125.122 41.6369 125.54 41.9803 125.875 42.3983C126.176 42.8074 126.388 43.2751 126.497 43.7711C126.606 44.2672 126.61 44.7806 126.509 45.2783C126.417 45.6609 126.27 46.028 126.072 46.3679C125.881 46.6984 125.659 47.0102 125.409 47.2991C125.165 47.5871 124.929 47.8607 124.713 48.1247C124.502 48.3706 124.314 48.6358 124.152 48.9167C124 49.1629 123.923 49.4482 123.931 49.7375C123.927 49.8727 123.889 50.0047 123.821 50.1215C123.786 50.1753 123.74 50.2211 123.686 50.2559C123.633 50.2906 123.572 50.3135 123.509 50.3231L122.069 50.5535C122.001 50.5657 121.932 50.5643 121.866 50.5495C121.799 50.5347 121.736 50.5066 121.68 50.4671C121.623 50.4314 121.576 50.3828 121.542 50.3252C121.507 50.2676 121.487 50.2027 121.483 50.1359C121.423 49.6892 121.455 49.2349 121.579 48.8015C121.692 48.4178 121.853 48.05 122.059 47.7071C122.261 47.378 122.492 47.0679 122.75 46.7807C123.005 46.4927 123.23 46.2239 123.451 45.9647C123.648 45.7332 123.819 45.4804 123.96 45.2111C124.085 44.9792 124.13 44.7129 124.089 44.4527C124.053 44.2237 123.962 44.0068 123.825 43.8204C123.687 43.6341 123.506 43.4838 123.297 43.3823C122.781 43.133 122.197 43.0621 121.637 43.1807C121.129 43.2549 120.657 43.4844 120.285 43.8376C119.913 44.1907 119.659 44.6504 119.558 45.1535C119.53 45.2745 119.481 45.3898 119.414 45.4943C119.329 45.5854 119.212 45.6418 119.088 45.6527L117.571 45.8975C117.464 45.9179 117.354 45.8955 117.264 45.8351C117.218 45.8033 117.179 45.7621 117.15 45.714C117.121 45.666 117.102 45.6124 117.096 45.5567C117.051 45.0804 117.125 44.6003 117.312 44.1599C117.502 43.6474 117.781 43.1728 118.137 42.7583C118.528 42.3044 118.988 41.9156 119.501 41.6063C120.054 41.2709 120.667 41.0459 121.305 40.9439ZM123.782 51.4319C123.848 51.4214 123.916 51.4241 123.981 51.4397C124.046 51.4554 124.107 51.4837 124.161 51.5231C124.218 51.5603 124.266 51.609 124.302 51.6661C124.339 51.7232 124.363 51.7873 124.373 51.8543L124.641 53.5007C124.662 53.6342 124.63 53.7706 124.551 53.8802C124.471 53.9899 124.352 54.0639 124.219 54.0863L122.611 54.3503C122.478 54.3709 122.341 54.3382 122.232 54.2591C122.176 54.2214 122.129 54.1725 122.093 54.1154C122.058 54.0584 122.035 53.9945 122.025 53.9279L121.757 52.2815C121.744 52.2154 121.746 52.1475 121.762 52.0822C121.778 52.0169 121.807 51.9556 121.848 51.9023C121.886 51.8466 121.934 51.7995 121.992 51.7639C122.049 51.7284 122.112 51.7052 122.179 51.6959L123.782 51.4319Z" fill="#117D77"/>
<g opacity="0.2">
<path d="M121.305 40.9439C121.883 40.8512 122.472 40.8399 123.053 40.9103C123.608 40.9763 124.147 41.1387 124.646 41.3903C125.122 41.6369 125.54 41.9803 125.875 42.3983C126.176 42.8074 126.388 43.2751 126.497 43.7711C126.606 44.2672 126.61 44.7806 126.509 45.2783C126.417 45.6609 126.27 46.028 126.072 46.3679C125.881 46.6984 125.659 47.0102 125.409 47.2991C125.165 47.5871 124.929 47.8607 124.713 48.1247C124.502 48.3706 124.314 48.6358 124.152 48.9167C124 49.1629 123.923 49.4482 123.931 49.7375C123.927 49.8727 123.889 50.0047 123.821 50.1215C123.786 50.1753 123.74 50.2211 123.686 50.2559C123.633 50.2906 123.572 50.3135 123.509 50.3231L122.069 50.5535C122.001 50.5657 121.932 50.5643 121.866 50.5495C121.799 50.5347 121.736 50.5066 121.68 50.4671C121.623 50.4314 121.576 50.3828 121.542 50.3252C121.507 50.2676 121.487 50.2027 121.483 50.1359C121.423 49.6892 121.455 49.2349 121.579 48.8015C121.692 48.4178 121.853 48.05 122.059 47.7071C122.261 47.378 122.492 47.0679 122.75 46.7807C123.005 46.4927 123.23 46.2239 123.451 45.9647C123.648 45.7332 123.819 45.4804 123.96 45.2111C124.085 44.9792 124.13 44.7129 124.089 44.4527C124.053 44.2237 123.962 44.0068 123.825 43.8204C123.687 43.6341 123.506 43.4838 123.297 43.3823C122.781 43.133 122.197 43.0621 121.637 43.1807C121.129 43.2549 120.657 43.4844 120.285 43.8376C119.913 44.1907 119.659 44.6504 119.558 45.1535C119.53 45.2745 119.481 45.3898 119.414 45.4943C119.329 45.5854 119.212 45.6418 119.088 45.6527L117.571 45.8975C117.464 45.9179 117.354 45.8955 117.264 45.8351C117.218 45.8033 117.179 45.7621 117.15 45.714C117.121 45.666 117.102 45.6124 117.096 45.5567C117.051 45.0804 117.125 44.6003 117.312 44.1599C117.502 43.6474 117.781 43.1728 118.137 42.7583C118.528 42.3044 118.988 41.9156 119.501 41.6063C120.054 41.2709 120.667 41.0459 121.305 40.9439ZM123.782 51.4319C123.848 51.4214 123.916 51.4241 123.981 51.4397C124.046 51.4554 124.107 51.4837 124.161 51.5231C124.218 51.5603 124.266 51.609 124.302 51.6661C124.339 51.7232 124.363 51.7873 124.373 51.8543L124.641 53.5007C124.662 53.6342 124.63 53.7706 124.551 53.8802C124.471 53.9899 124.352 54.0639 124.219 54.0863L122.611 54.3503C122.478 54.3709 122.341 54.3382 122.232 54.2591C122.176 54.2214 122.129 54.1725 122.093 54.1154C122.058 54.0584 122.035 53.9945 122.025 53.9279L121.757 52.2815C121.744 52.2154 121.746 52.1475 121.762 52.0822C121.778 52.0169 121.807 51.9556 121.848 51.9023C121.886 51.8466 121.934 51.7995 121.992 51.7639C122.049 51.7284 122.112 51.7052 122.179 51.6959L123.782 51.4319Z" fill="black"/>
</g>
<path d="M134.88 43.5312C134.945 43.5767 135.001 43.635 135.043 43.7027C135.085 43.7704 135.113 43.846 135.125 43.9248C135.14 44.0029 135.139 44.0833 135.121 44.1609C135.104 44.2386 135.071 44.3118 135.024 44.376L133.881 45.984C133.836 46.0494 133.777 46.1049 133.71 46.147C133.642 46.1891 133.567 46.2169 133.488 46.2288C133.41 46.244 133.329 46.243 133.252 46.2256C133.174 46.2083 133.101 46.175 133.037 46.128L131.462 45.0096C131.397 44.9647 131.341 44.9064 131.3 44.8385C131.259 44.7707 131.232 44.6948 131.222 44.616C131.207 44.5379 131.208 44.4575 131.225 44.3798C131.243 44.3022 131.276 44.2289 131.323 44.1648L132.48 42.5568C132.573 42.4264 132.714 42.3382 132.873 42.3113C133.031 42.2843 133.193 42.3208 133.325 42.4128L134.88 43.5312ZM141.523 32.64C142.097 33.0423 142.608 33.5276 143.04 34.08C143.461 34.5938 143.786 35.1791 144 35.808C144.199 36.4106 144.266 37.0491 144.197 37.68C144.115 38.3527 143.86 38.9928 143.457 39.5376C143.158 39.978 142.773 40.3535 142.325 40.6416C141.93 40.8888 141.502 41.0764 141.053 41.1984C140.615 41.3127 140.169 41.3898 139.718 41.4288L138.441 41.544C138.058 41.5746 137.679 41.6404 137.309 41.7408C136.967 41.8184 136.654 41.9915 136.406 42.24C136.294 42.3535 136.153 42.4333 135.998 42.4704C135.924 42.4915 135.847 42.4947 135.772 42.4797C135.696 42.4646 135.626 42.4318 135.566 42.384L134.174 41.3952C134.041 41.3002 133.95 41.1574 133.92 40.9968C133.902 40.9189 133.902 40.8379 133.922 40.7604C133.941 40.6828 133.978 40.6109 134.03 40.5504C134.355 40.1284 134.762 39.7759 135.225 39.5136C135.643 39.2856 136.088 39.113 136.55 39C136.996 38.8918 137.451 38.8227 137.909 38.7936C138.36 38.7648 138.782 38.7312 139.176 38.6928C139.536 38.661 139.892 38.5901 140.237 38.4816C140.538 38.3811 140.798 38.1836 140.976 37.92C141.136 37.6973 141.24 37.4392 141.28 37.1676C141.319 36.896 141.292 36.6189 141.201 36.36C140.974 35.7202 140.54 35.1746 139.968 34.8096C138.931 34.0704 137.8 34.0464 136.574 34.7376C136.451 34.8161 136.314 34.8714 136.171 34.9008C136.096 34.906 136.021 34.8963 135.951 34.8724C135.88 34.8485 135.814 34.8109 135.758 34.7616L134.28 33.7104C134.226 33.6748 134.18 33.6289 134.145 33.5753C134.109 33.5217 134.085 33.4615 134.073 33.3984C134.062 33.333 134.064 33.2661 134.08 33.2016C134.095 33.1372 134.124 33.0767 134.165 33.024C134.513 32.577 134.967 32.2227 135.485 31.992C136.073 31.7254 136.703 31.563 137.347 31.512C138.055 31.4528 138.769 31.5095 139.459 31.68C140.204 31.8595 140.906 32.1859 141.523 32.64Z" fill="#117D77"/>
<g opacity="0.6">
<path d="M134.88 43.5312C134.945 43.5767 135.001 43.635 135.043 43.7027C135.085 43.7704 135.113 43.846 135.125 43.9248C135.14 44.0029 135.139 44.0833 135.121 44.1609C135.104 44.2386 135.071 44.3118 135.024 44.376L133.881 45.984C133.836 46.0494 133.777 46.1049 133.71 46.147C133.642 46.1891 133.567 46.2169 133.488 46.2288C133.41 46.244 133.329 46.243 133.252 46.2256C133.174 46.2083 133.101 46.175 133.037 46.128L131.462 45.0096C131.397 44.9647 131.341 44.9064 131.3 44.8385C131.259 44.7707 131.232 44.6948 131.222 44.616C131.207 44.5379 131.208 44.4575 131.225 44.3798C131.243 44.3022 131.276 44.2289 131.323 44.1648L132.48 42.5568C132.573 42.4264 132.714 42.3382 132.873 42.3113C133.031 42.2843 133.193 42.3208 133.325 42.4128L134.88 43.5312ZM141.523 32.64C142.097 33.0423 142.608 33.5276 143.04 34.08C143.461 34.5938 143.786 35.1791 144 35.808C144.199 36.4106 144.266 37.0491 144.197 37.68C144.115 38.3527 143.86 38.9928 143.457 39.5376C143.158 39.978 142.773 40.3535 142.325 40.6416C141.93 40.8888 141.502 41.0764 141.053 41.1984C140.615 41.3127 140.169 41.3898 139.718 41.4288L138.441 41.544C138.058 41.5746 137.679 41.6404 137.309 41.7408C136.967 41.8184 136.654 41.9915 136.406 42.24C136.294 42.3535 136.153 42.4333 135.998 42.4704C135.924 42.4915 135.847 42.4947 135.772 42.4797C135.696 42.4646 135.626 42.4318 135.566 42.384L134.174 41.3952C134.041 41.3002 133.95 41.1574 133.92 40.9968C133.902 40.9189 133.902 40.8379 133.922 40.7604C133.941 40.6828 133.978 40.6109 134.03 40.5504C134.355 40.1284 134.762 39.7759 135.225 39.5136C135.643 39.2856 136.088 39.113 136.55 39C136.996 38.8918 137.451 38.8227 137.909 38.7936C138.36 38.7648 138.782 38.7312 139.176 38.6928C139.536 38.661 139.892 38.5901 140.237 38.4816C140.538 38.3811 140.798 38.1836 140.976 37.92C141.136 37.6973 141.24 37.4392 141.28 37.1676C141.319 36.896 141.292 36.6189 141.201 36.36C140.974 35.7202 140.54 35.1746 139.968 34.8096C138.931 34.0704 137.8 34.0464 136.574 34.7376C136.451 34.8161 136.314 34.8714 136.171 34.9008C136.096 34.906 136.021 34.8963 135.951 34.8724C135.88 34.8485 135.814 34.8109 135.758 34.7616L134.28 33.7104C134.226 33.6748 134.18 33.6289 134.145 33.5753C134.109 33.5217 134.085 33.4615 134.073 33.3984C134.062 33.333 134.064 33.2661 134.08 33.2016C134.095 33.1372 134.124 33.0767 134.165 33.024C134.513 32.577 134.967 32.2227 135.485 31.992C136.073 31.7254 136.703 31.563 137.347 31.512C138.055 31.4528 138.769 31.5095 139.459 31.68C140.204 31.8595 140.906 32.1859 141.523 32.64Z" fill="white"/>
</g>
<path d="M99.1345 86.021H82.0801V44.7026C82.0801 41.1139 83.5057 37.6722 86.0433 35.1346C88.5809 32.597 92.0226 31.1714 95.6113 31.1714H97.1857C100.774 31.1714 104.216 32.597 106.754 35.1346C109.291 37.6722 110.717 41.1139 110.717 44.7026V74.4626C110.711 77.5303 109.487 80.4701 107.316 82.6371C105.145 84.804 102.202 86.021 99.1345 86.021Z" fill="#263238"/>
<path d="M80.4193 185.491C80.1177 187.203 79.9571 188.937 79.9393 190.675C79.8769 193.824 79.3009 194.942 79.2241 197.525C79.1329 200.477 79.6465 201.581 80.8417 203.242C82.0369 204.902 85.1618 206.405 86.5153 203.602C87.8689 200.798 87.6721 198.96 87.2449 196.066C86.8081 193.07 86.7649 191.414 86.4961 189.134C86.2753 187.123 86.0161 185.592 86.0161 185.592L80.4193 185.491Z" fill="#263238"/>
<path d="M89.3568 164.578L78.9888 164.391C79.1424 171.312 80.2416 178.997 80.4288 185.511C80.4672 186.735 80.4 195.01 80.8608 197.511C81.5568 201.293 86.04 200.779 86.28 198.519C86.52 196.258 85.992 186.595 86.0064 185.597C85.9632 181.431 87.9264 174.399 88.9392 166.92C88.9824 166.56 89.3088 164.938 89.3568 164.578Z" fill="#FFA8A7"/>
<path d="M102.677 180.106C102.677 180.106 102.269 179.885 102.197 180.322C102.096 180.84 101.942 181.91 101.717 182.765C101.419 183.95 101.169 185.904 101.347 186.874C101.525 187.843 103.781 189.082 105.245 189.533C107.049 190.09 108.694 191.069 110.045 192.389C111.485 193.752 114.619 195.038 116.765 195.024C119.285 195.024 121.041 194.184 121.872 192.835C122.702 191.486 121.113 191.323 118.233 189.475L116.001 188.035C111.437 185.054 109.761 183.461 108.48 180.48L102.677 180.106Z" fill="#263238"/>
<path d="M108.518 178.258C108.442 176.117 109.92 157.92 109.92 157.92L100.075 162.408C102.182 174.994 102.634 177.965 102.667 180.024C102.624 180.197 102.606 180.375 102.614 180.552C102.614 182.995 105.384 184.315 107.534 185.947C109.362 187.379 111.31 188.651 113.357 189.749C114.922 190.531 118.099 190.603 118.493 189.6C115.872 187.599 112.061 184.603 109.978 182.319C108.96 181.243 108.595 180.403 108.518 178.258Z" fill="#FFA8A7"/>
<path d="M83.2366 97.0369C79.4542 105.336 79.4542 111.758 80.083 122.352C80.6398 132.072 81.5662 140.64 81.5662 140.64C81.4222 142.363 79.027 145.728 78.715 153.35C78.427 160.474 79.195 169.531 79.195 169.531C79.195 169.531 84.5758 172.512 88.555 169.502C88.555 169.502 92.395 151.171 93.5182 142.253C94.4782 134.472 96.2062 124.531 96.2062 124.531L99.8398 142.2C99.0556 144.707 98.4871 147.276 98.1406 149.88C97.6318 155.126 100.569 165.427 100.569 165.427C100.569 165.427 106.128 167.083 109.521 164.074C109.521 164.074 110.789 147.326 111.264 141.01C111.897 132.547 110.563 109.642 109.521 97.5121L83.2366 97.0369Z" fill="#455A64"/>
<path d="M96.2158 124.517L97.7086 111.202C97.7086 111.202 104.4 110.309 107.433 107.458C106.565 108.816 105.408 109.967 104.046 110.828C102.683 111.689 101.147 112.239 99.547 112.44L97.387 124.829L99.8398 142.2L96.2158 124.517Z" fill="#263238"/>
<path d="M123.312 93.7633C123.588 91.3335 123.71 88.8886 123.677 86.4433C123.528 84.3313 123.149 83.9857 120.197 80.2465C116.213 75.1921 112.809 70.6465 109.209 66.1297C106.637 62.9041 103.929 62.4097 101.299 62.5537C99.4559 62.6545 103.056 71.5201 104.865 76.7665L115.2 87.8929C115.52 88.332 115.667 88.8738 115.613 89.4145L114.989 98.8801L118.085 103.027C118.085 103.027 122.774 98.9857 123.312 93.7633Z" fill="#FFA8A7"/>
<path d="M91.3342 62.8418C89.3326 62.981 85.6942 63.3218 85.6942 63.3218C83.5966 64.493 83.0638 65.4578 82.675 68.2418C82.507 69.4322 83.4766 72.5954 84.307 77.093L85.8814 85.4306L85.7086 89.5682C84.8926 92.093 83.0446 95.2274 81.4126 99.8498C89.4286 104.323 96.1486 104.491 102.245 103.69C106.891 103.09 109.353 101.967 110.174 100.853C110.001 96.2882 109.694 93.4658 109.598 88.6946C109.565 86.693 109.685 84.6674 109.766 82.3634C112.881 79.8002 112.92 75.5378 111.206 72.7634C107.256 66.365 103.411 62.3378 100.867 62.5442L91.3342 62.8418Z" fill="#117D77"/>
<path opacity="0.6" d="M91.3342 62.8418C89.3326 62.981 85.6942 63.3218 85.6942 63.3218C83.5966 64.493 83.0638 65.4578 82.675 68.2418C82.507 69.4322 83.4766 72.5954 84.307 77.093L85.8814 85.4306L85.7086 89.5682C84.8926 92.093 83.0446 95.2274 81.4126 99.8498C89.4286 104.323 96.1486 104.491 102.245 103.69C106.891 103.09 109.353 101.967 110.174 100.853C110.001 96.2882 109.694 93.4658 109.598 88.6946C109.565 86.693 109.685 84.6674 109.766 82.3634C112.881 79.8002 112.92 75.5378 111.206 72.7634C107.256 66.365 103.411 62.3378 100.867 62.5442L91.3342 62.8418Z" fill="white"/>
<path opacity="0.1" d="M103.56 82.4256C103.56 82.4256 99.9025 85.2672 95.7217 83.784C94.5477 83.4141 93.489 82.7474 92.6482 81.8485C91.8073 80.9496 91.2126 79.8489 90.9217 78.6528C90.9217 78.6528 90.4801 83.4288 95.7457 85.056C100.848 86.6256 103.56 82.4256 103.56 82.4256Z" fill="black"/>
<path d="M108.523 49.733C108.365 56.6642 106.123 58.373 104.99 58.853C103.857 59.333 101.688 59.045 99.5758 58.6946V62.8802C99.5758 62.8802 102.014 65.4338 101.832 67.3394C101.649 69.245 97.9918 69.461 95.2654 67.5938C93.761 66.5605 92.4003 65.3321 91.219 63.941C90.9921 63.6726 90.8679 63.3324 90.8686 62.981V53.189C90.8686 53.189 89.7118 54.413 87.667 53.0114C87.2258 52.7298 86.848 52.3595 86.5576 51.9241C86.2673 51.4886 86.0707 50.9975 85.9804 50.4819C85.8901 49.9664 85.9081 49.4377 86.0332 48.9294C86.1582 48.4212 86.3877 47.9445 86.707 47.5298C87.5998 46.4786 89.8654 46.4066 90.9502 48.0098C91.5646 49.205 91.6462 50.4098 92.3326 49.9298C94.1566 48.6146 93.1774 45.6098 95.3806 44.1698C96.1035 43.7924 96.8546 43.4715 97.627 43.2098C101.558 41.8514 104.966 40.709 105.787 38.021C107.333 38.9042 108.715 41.5586 108.523 49.733Z" fill="#FFA8A7"/>
<path d="M100.771 55.9248C101.275 55.9248 101.683 55.5165 101.683 55.0128C101.683 54.5091 101.275 54.1008 100.771 54.1008C100.267 54.1008 99.8589 54.5091 99.8589 55.0128C99.8589 55.5165 100.267 55.9248 100.771 55.9248Z" fill="#B16668"/>
<path d="M100.166 48.6817C100.166 48.8694 100.111 49.053 100.007 49.2097C99.9035 49.3663 99.7563 49.4892 99.5837 49.5631C99.4111 49.6369 99.2206 49.6585 99.0358 49.6252C98.851 49.5919 98.68 49.5051 98.544 49.3756C98.4081 49.2461 98.313 49.0796 98.2708 48.8966C98.2285 48.7137 98.2408 48.5224 98.3061 48.3463C98.3715 48.1703 98.487 48.0173 98.6385 47.9063C98.7899 47.7952 98.9706 47.731 99.1581 47.7217C99.2881 47.7151 99.4182 47.7352 99.5402 47.7805C99.6623 47.8258 99.7739 47.8955 99.8682 47.9853C99.9625 48.0751 100.037 48.1831 100.089 48.3028C100.14 48.4226 100.166 48.5514 100.166 48.6817Z" fill="#263238"/>
<path d="M107.439 48.7778C107.448 48.8952 107.435 49.0134 107.398 49.1255C107.362 49.2376 107.304 49.3414 107.227 49.4308C107.15 49.5201 107.056 49.5933 106.951 49.646C106.845 49.6987 106.731 49.7299 106.613 49.7378C106.494 49.7487 106.375 49.7343 106.262 49.6955C106.149 49.6567 106.046 49.5943 105.96 49.5126C105.873 49.4309 105.805 49.3317 105.759 49.2215C105.714 49.1114 105.692 48.9928 105.696 48.8738C105.684 48.7554 105.696 48.6359 105.731 48.5223C105.767 48.4088 105.825 48.3037 105.902 48.2134C105.98 48.1232 106.075 48.0498 106.182 47.9976C106.289 47.9455 106.405 47.9157 106.524 47.9101C106.643 47.9046 106.762 47.9233 106.873 47.9653C106.984 48.0072 107.086 48.0714 107.171 48.154C107.257 48.2366 107.325 48.3358 107.371 48.4455C107.417 48.5553 107.44 48.6732 107.439 48.7922V48.7778Z" fill="#263238"/>
<path d="M98.9329 51.1488C98.105 51.1488 97.3109 50.8203 96.725 50.2353C96.1392 49.6503 95.8094 48.8567 95.8081 48.0288C95.8081 45.9072 97.9969 45.9072 98.9329 45.9072C99.8689 45.9072 102.053 45.9072 102.053 48.0288C102.052 48.8559 101.723 49.6488 101.138 50.2336C100.553 50.8184 99.76 51.1476 98.9329 51.1488ZM98.9329 46.3968C97.0129 46.3968 96.3025 46.8768 96.3025 48.0288C96.3025 48.729 96.5806 49.4005 97.0757 49.8956C97.5708 50.3907 98.2423 50.6688 98.9425 50.6688C99.6427 50.6688 100.314 50.3907 100.809 49.8956C101.304 49.4005 101.583 48.729 101.583 48.0288C101.563 46.8528 100.824 46.3968 98.9329 46.3968Z" fill="#455A64"/>
<path d="M106.858 51.1488C106.03 51.1488 105.236 50.8203 104.65 50.2353C104.064 49.6503 103.734 48.8567 103.733 48.0288C103.733 45.9072 105.922 45.9072 106.858 45.9072C107.794 45.9072 109.978 45.9072 109.978 48.0288C109.976 48.8559 109.647 49.6488 109.062 50.2336C108.478 50.8184 107.685 51.1476 106.858 51.1488ZM106.858 46.3968C104.967 46.3968 104.227 46.8768 104.227 48.0288C104.227 48.729 104.505 49.4005 105.001 49.8956C105.496 50.3907 106.167 50.6688 106.867 50.6688C107.567 50.6688 108.239 50.3907 108.734 49.8956C109.229 49.4005 109.507 48.729 109.507 48.0288C109.488 46.8528 108.749 46.3968 106.858 46.3968Z" fill="#455A64"/>
<path d="M102.538 47.021L102.691 52.853L105.758 51.9026L102.538 47.021Z" fill="#F28F8F"/>
<path d="M99.5713 58.7088C97.3441 58.416 92.7601 57.1008 92.0449 55.2864C92.3328 56.2033 92.8938 57.0105 93.6529 57.6C95.0209 58.776 99.5713 60.096 99.5713 60.096V58.7088Z" fill="#F28F8F"/>
<path d="M99.6815 44.1889L97.6463 45.4321C97.4859 45.1527 97.4393 44.8222 97.5162 44.5094C97.593 44.1965 97.7875 43.9253 98.0591 43.7521C98.1934 43.6706 98.3428 43.6172 98.4982 43.5951C98.6537 43.573 98.8121 43.5826 98.9637 43.6234C99.1154 43.6643 99.2572 43.7354 99.3805 43.8326C99.5039 43.9298 99.6063 44.051 99.6815 44.1889Z" fill="#263238"/>
<path d="M107.961 45.5712L105.696 44.7792C105.74 44.629 105.814 44.4894 105.914 44.369C106.013 44.2485 106.137 44.1497 106.276 44.0787C106.415 44.0077 106.568 43.9659 106.724 43.9559C106.88 43.946 107.037 43.968 107.184 44.0208C107.488 44.13 107.738 44.3519 107.883 44.6405C108.027 44.9291 108.056 45.2624 107.961 45.5712Z" fill="#263238"/>
<path d="M101.808 48.2785C101.775 48.2785 101.743 48.2721 101.713 48.2595C101.683 48.2469 101.656 48.2284 101.633 48.2051C101.61 48.1819 101.592 48.1543 101.58 48.1241C101.568 48.0938 101.562 48.0615 101.563 48.0289C101.563 47.6305 102.35 47.3713 103.061 47.3713C103.771 47.3713 104.227 47.6305 104.227 48.0289C104.212 48.0811 104.181 48.127 104.137 48.1596C104.094 48.1923 104.041 48.21 103.987 48.21C103.933 48.21 103.88 48.1923 103.837 48.1596C103.793 48.127 103.762 48.0811 103.747 48.0289C103.747 47.9809 103.502 47.8609 103.075 47.8609C102.731 47.8536 102.389 47.9123 102.067 48.0337C102.067 48.0671 102.06 48.1002 102.047 48.1309C102.034 48.1615 102.015 48.1892 101.99 48.2121C101.966 48.2351 101.937 48.2528 101.906 48.2642C101.875 48.2756 101.841 48.2805 101.808 48.2785Z" fill="#455A64"/>
<path d="M96.0622 48.0673H96.0334L90.547 47.5873C90.2907 47.3332 89.9853 47.134 89.6494 47.0017L96.091 47.5969C96.1556 47.6053 96.2143 47.6386 96.2547 47.6898C96.295 47.7409 96.3138 47.8057 96.307 47.8705C96.2958 47.9268 96.2651 47.9774 96.2203 48.0133C96.1756 48.0493 96.1196 48.0684 96.0622 48.0673Z" fill="#455A64"/>
<path d="M73.5359 53.7889C75.3311 51.3889 76.5551 49.5793 78.1919 47.5489C79.1231 46.3825 79.7183 45.5473 80.5919 44.3521C81.2063 43.5265 81.5519 42.8305 82.2527 42.5761C83.0098 42.2658 83.6922 41.7979 84.2543 41.2033C84.5998 40.821 84.9205 40.417 85.2143 39.9937C86.2431 38.6089 87.4651 37.3788 88.8431 36.3409C90.2831 35.2561 91.8911 34.4209 93.3743 33.3889C94.2575 32.7697 95.2031 31.7425 94.1279 30.7825C93.7981 30.5048 93.4035 30.3149 92.9807 30.2305C90.3647 29.6641 88.0895 30.5617 85.5311 31.2145C84.4198 31.4919 83.333 31.8595 82.2815 32.3137C81.7643 32.5182 81.2793 32.7963 80.8415 33.1393C80.2294 33.7564 79.7277 34.4741 79.3583 35.2609C78.2399 37.2577 75.8399 39.0433 74.1599 40.6225C72.1967 42.4705 70.4399 44.1649 68.1983 46.2001C66.1823 48.0385 64.2095 49.7281 62.3615 51.7345C60.8303 53.3905 61.4015 54.6865 61.6031 55.1377C62.8511 57.7009 64.2479 58.6225 65.9231 60.2113C68.8031 62.9617 78.7631 70.8769 82.0607 73.4929C82.7692 74.0494 83.3256 74.7759 83.6783 75.6049L84.3119 77.0689C88.0751 77.7601 90.5855 72.1105 87.4703 65.3089C86.9544 64.209 86.1664 63.2591 85.1807 62.5489C81.2447 59.6833 73.5359 53.7889 73.5359 53.7889Z" fill="#FFA8A7"/>
<path d="M73.5359 53.7888C72.3381 55.2623 70.7419 56.3603 68.9375 56.952C68.9375 56.952 71.3375 57.5664 74.6255 54.6144L73.5359 53.7888Z" fill="#F28F8F"/>
<path d="M122.333 88.7569L121.719 88.2289C121.627 88.1684 121.522 88.1303 121.413 88.1178C121.304 88.1053 121.193 88.1187 121.09 88.1569L114.423 89.9713C114.087 90.0832 113.779 90.2664 113.521 90.5084C113.262 90.7503 113.059 91.0452 112.925 91.3729L108.125 105.211C108.067 105.324 108.044 105.452 108.06 105.577C108.075 105.703 108.128 105.821 108.211 105.917L108.845 106.464C108.937 106.528 109.043 106.568 109.155 106.581C109.266 106.595 109.379 106.581 109.483 106.541L116.16 104.726C116.496 104.614 116.804 104.431 117.062 104.189C117.321 103.947 117.524 103.653 117.658 103.325C118.618 100.603 121.498 92.2081 122.458 89.4865C122.573 89.1457 122.515 88.8865 122.333 88.7569Z" fill="#455A64"/>
<path d="M108.754 105.744L113.554 91.9057C113.687 91.5782 113.89 91.2837 114.149 91.0425C114.407 90.8013 114.715 90.6192 115.051 90.5089L121.714 88.6945C122.333 88.5265 122.674 88.8817 122.453 89.4865C121.493 92.2081 118.613 100.603 117.653 103.325C117.519 103.653 117.316 103.948 117.057 104.189C116.799 104.431 116.491 104.615 116.155 104.726L109.493 106.56C108.879 106.704 108.547 106.349 108.754 105.744Z" fill="#117D77"/>
<path d="M114.326 90.893C113.98 91.1555 113.711 91.5072 113.549 91.9106L108.749 105.744C108.694 105.854 108.671 105.977 108.683 106.099C108.695 106.222 108.741 106.338 108.816 106.435L108.221 105.927C108.135 105.832 108.081 105.714 108.065 105.588C108.048 105.462 108.071 105.334 108.13 105.221L112.93 91.3826C113.081 91.0064 113.328 90.6757 113.645 90.4226L114.326 90.893Z" fill="#37474F"/>
<path d="M120.504 95.0641C120.024 96.4705 118.358 97.4113 115.603 98.0641C112.848 98.7169 111.326 101.64 111.763 102.528C112.2 103.416 116.654 104.246 118.435 103.992C120.216 103.738 122.001 101.165 122.544 100.368C123.086 99.5713 123.71 94.0129 123.139 93.2497C122.568 92.4865 121.363 92.6065 121.363 92.6065L120.504 95.0641Z" fill="#F28F8F"/>
</svg>
