<svg width="280" height="280" viewBox="0 0 280 280" fill="none" xmlns="http://www.w3.org/2000/svg">
<path d="M70.1286 217.974C108.718 236.365 171.281 236.37 209.871 217.974C248.461 199.578 248.455 169.764 209.871 151.374C171.287 132.983 108.718 132.983 70.1286 151.374C31.539 169.764 31.5446 199.584 70.1286 217.974Z" fill="#F5F5F5"/>
<path d="M209.737 204.383C216.844 204.383 222.606 201.638 222.606 198.251C222.606 194.865 216.844 192.119 209.737 192.119C202.63 192.119 196.868 194.865 196.868 198.251C196.868 201.638 202.63 204.383 209.737 204.383Z" fill="#EBEBEB"/>
<path d="M67.2002 199.13L71.753 196.504C74.2949 194.43 76.2297 191.707 77.353 188.625C78.7586 184.749 78.5626 181.804 77.5546 180.326C76.317 178.506 73.1082 178.825 72.9794 182.655C72.7106 190.204 70.5098 195.44 67.2002 199.13Z" fill="#117D77"/>
<path opacity="0.2" d="M67.2002 199.13L71.753 196.504C74.2949 194.43 76.2297 191.707 77.353 188.625C78.7586 184.749 78.5626 181.804 77.5546 180.326C76.317 178.506 73.1082 178.825 72.9794 182.655C72.7106 190.204 70.5098 195.44 67.2002 199.13Z" fill="black"/>
<path d="M67.2004 199.41C67.1411 199.41 67.0836 199.39 67.0361 199.355C66.9886 199.319 66.9536 199.269 66.9362 199.213C66.9188 199.156 66.9198 199.095 66.9391 199.039C66.9584 198.983 66.995 198.935 67.0436 198.901C77.5716 191.621 75.5332 181.468 75.5108 181.367C75.5031 181.33 75.5027 181.292 75.5096 181.255C75.5165 181.219 75.5307 181.183 75.5512 181.152C75.5718 181.12 75.5983 181.093 75.6293 181.072C75.6603 181.051 75.6952 181.036 75.732 181.028C75.7688 181.021 75.8067 181.02 75.8436 181.027C75.8806 181.034 75.9157 181.048 75.9472 181.069C75.9787 181.089 76.0058 181.116 76.027 181.147C76.0482 181.178 76.0631 181.213 76.0708 181.25C76.0708 181.356 78.2212 191.856 67.3796 199.36C67.327 199.396 67.264 199.414 67.2004 199.41Z" fill="white"/>
<path d="M58.0778 204.4C58.0778 204.4 56.493 203.112 56.8738 201.365C57.2546 199.618 58.2794 198.363 56.5266 196.112C54.7738 193.861 54.2866 190.859 56.381 189.235C57.977 187.975 60.469 189.756 61.365 186.435C62.0258 184.005 61.8018 178.623 64.8986 176.831C67.9954 175.039 69.9386 177.738 69.4514 181.39C69.0258 184.654 68.421 187.796 68.8914 188.67C69.7986 190.35 71.3498 190.12 71.277 193.189C71.2154 196.045 68.5106 198.408 68.5106 198.408L58.0778 204.4Z" fill="#117D77"/>
<path d="M63.28 201.662C63.2115 201.661 63.1456 201.636 63.0942 201.59C63.0428 201.545 63.0094 201.483 63 201.415C62.1992 194.779 64.12 183.322 65.688 179.917C65.7012 179.879 65.7223 179.845 65.75 179.816C65.7776 179.787 65.8112 179.764 65.8483 179.749C65.8855 179.734 65.9254 179.728 65.9653 179.73C66.0053 179.731 66.0444 179.742 66.08 179.76C66.1134 179.775 66.1435 179.797 66.1684 179.824C66.1934 179.85 66.2127 179.882 66.2252 179.916C66.2377 179.951 66.2432 179.988 66.2414 180.024C66.2395 180.061 66.2303 180.097 66.2144 180.13C64.6632 183.49 62.8096 194.981 63.5768 201.326C63.5847 201.399 63.5632 201.473 63.517 201.53C63.4709 201.588 63.4038 201.625 63.3304 201.634L63.28 201.662Z" fill="white"/>
<path d="M63.129 196.493C63.0862 196.495 63.0436 196.485 63.0058 196.465C61.0626 195.518 59.8306 192.141 59.7802 191.985C59.7665 191.95 59.7599 191.913 59.7608 191.875C59.7617 191.838 59.7702 191.801 59.7856 191.767C59.801 191.733 59.8231 191.702 59.8505 191.677C59.878 191.651 59.9103 191.631 59.9455 191.619C59.9807 191.606 60.0181 191.6 60.0555 191.602C60.0929 191.604 60.1295 191.614 60.1632 191.63C60.1968 191.647 60.2269 191.67 60.2515 191.698C60.2762 191.726 60.2949 191.759 60.3066 191.794C60.3066 191.828 61.5106 195.098 63.2522 195.944C63.3094 195.972 63.3554 196.018 63.3828 196.075C63.4102 196.132 63.4173 196.197 63.403 196.259C63.3886 196.321 63.3537 196.376 63.304 196.415C63.2542 196.455 63.1925 196.476 63.129 196.476V196.493Z" fill="white"/>
<path d="M63.0952 198.733C63.0391 198.733 62.9843 198.716 62.9383 198.683C62.8922 198.651 62.8571 198.606 62.8376 198.553C62.8097 198.485 62.81 198.409 62.8383 198.34C62.8666 198.272 62.9207 198.218 62.9888 198.189C66.2592 196.879 68.2976 192.987 68.32 192.942C68.3542 192.876 68.4132 192.826 68.4841 192.804C68.555 192.781 68.6319 192.788 68.698 192.822C68.7641 192.856 68.8139 192.915 68.8365 192.986C68.8591 193.057 68.8526 193.134 68.8184 193.2C68.7288 193.368 66.6624 197.321 63.2184 198.71C63.18 198.728 63.1375 198.736 63.0952 198.733Z" fill="white"/>
<path d="M177.408 168.605C177.408 168.605 174.961 164.64 174.72 160.334C174.479 156.027 175.426 154.235 176.725 153.72C178.024 153.205 178.125 154.79 178.791 155.725C179.458 156.66 180.819 156.128 181.323 153.21C181.827 150.293 183.663 145.37 187.483 144.413C191.683 143.371 189.431 148.299 188.373 150.22C187.315 152.141 186.497 154.762 187.191 155.473C187.886 156.184 188.967 154.868 189.991 156.089C191.24 157.562 187.359 162.865 185.131 164.147L177.408 168.605Z" fill="#117D77"/>
<path d="M180.763 166.942C180.726 166.94 180.69 166.931 180.656 166.916C180.623 166.901 180.593 166.879 180.568 166.852C180.543 166.825 180.524 166.793 180.511 166.758C180.498 166.724 180.492 166.687 180.494 166.65C180.873 159.723 183.033 153.011 186.766 147.162C186.787 147.132 186.814 147.106 186.846 147.086C186.877 147.067 186.912 147.054 186.949 147.048C186.985 147.042 187.023 147.044 187.059 147.053C187.095 147.062 187.128 147.078 187.158 147.101C187.217 147.144 187.256 147.209 187.267 147.281C187.279 147.354 187.262 147.427 187.219 147.487C183.554 153.25 181.432 159.859 181.059 166.678C181.057 166.715 181.048 166.751 181.032 166.784C181.016 166.818 180.993 166.847 180.966 166.872C180.938 166.896 180.906 166.915 180.871 166.927C180.836 166.939 180.799 166.944 180.763 166.942Z" fill="white"/>
<path d="M181.082 163.632C181.035 163.631 180.989 163.62 180.948 163.598C179.38 162.73 178.512 160.154 178.478 160.048C178.466 160.013 178.46 159.976 178.462 159.939C178.464 159.902 178.474 159.866 178.49 159.832C178.506 159.799 178.529 159.769 178.556 159.745C178.584 159.72 178.616 159.701 178.652 159.69C178.722 159.667 178.799 159.673 178.865 159.706C178.931 159.74 178.981 159.798 179.004 159.869C179.004 159.869 179.844 162.35 181.244 163.106C181.308 163.143 181.354 163.204 181.374 163.275C181.394 163.346 181.386 163.421 181.351 163.486C181.325 163.535 181.286 163.574 181.239 163.6C181.191 163.626 181.136 163.637 181.082 163.632Z" fill="white"/>
<path d="M181.356 161.935C181.294 161.934 181.234 161.913 181.186 161.875C181.137 161.836 181.102 161.783 181.087 161.722C181.078 161.687 181.076 161.65 181.081 161.614C181.087 161.578 181.099 161.543 181.118 161.512C181.136 161.481 181.161 161.453 181.191 161.432C181.22 161.41 181.254 161.395 181.289 161.386C185.332 160.362 186.732 158.245 186.743 158.222C186.763 158.191 186.789 158.164 186.819 158.143C186.85 158.121 186.884 158.106 186.92 158.098C186.956 158.09 186.994 158.089 187.03 158.096C187.067 158.102 187.101 158.116 187.133 158.136C187.164 158.155 187.191 158.181 187.212 158.212C187.234 158.242 187.249 158.276 187.257 158.312C187.265 158.348 187.266 158.386 187.259 158.422C187.253 158.459 187.239 158.493 187.219 158.525C187.158 158.62 185.702 160.843 181.429 161.93L181.356 161.935Z" fill="white"/>
<path d="M116.48 159.902C116.48 159.902 111.11 158.592 110.83 148.534C110.533 137.682 112.146 125.014 105.79 123.99C99.4338 122.965 95.9058 130.71 95.9842 139.754C96.057 147.672 99.249 164.864 116.458 168.235L116.48 159.902Z" fill="#117D77"/>
<path opacity="0.2" d="M116.48 159.902C116.48 159.902 111.11 158.592 110.83 148.534C110.533 137.682 112.146 125.014 105.79 123.99C99.4338 122.965 95.9058 130.71 95.9842 139.754C96.057 147.672 99.249 164.864 116.458 168.235L116.48 159.902Z" fill="black"/>
<path d="M116.48 167.205H116.43C112.56 166.499 109.407 164.366 107.061 160.871C100.106 150.494 102.295 131.118 103.018 127.736C103.034 127.664 103.077 127.601 103.139 127.56C103.201 127.52 103.276 127.504 103.348 127.518C103.421 127.535 103.484 127.58 103.524 127.642C103.565 127.705 103.58 127.78 103.567 127.854C102.855 131.214 100.677 150.343 107.526 160.558C108.523 162.142 109.838 163.501 111.388 164.55C112.938 165.599 114.689 166.314 116.531 166.65C116.567 166.657 116.602 166.671 116.633 166.691C116.664 166.712 116.691 166.738 116.712 166.769C116.733 166.799 116.747 166.834 116.755 166.87C116.762 166.907 116.762 166.944 116.755 166.981C116.743 167.045 116.709 167.102 116.658 167.143C116.608 167.184 116.545 167.206 116.48 167.205Z" fill="white"/>
<path d="M116.48 193.015C110.931 193.766 101.92 193.754 96.7181 189.655C91.5157 185.556 92.6021 182.028 94.6013 180.555C96.6005 179.082 98.3365 177.402 94.8981 174.132C91.4597 170.862 85.9381 165.609 84.1461 157.73C82.3541 149.85 83.2389 144.922 86.7557 143.282C90.1661 141.691 91.0677 144.222 93.1565 149.442C95.2453 154.661 99.9437 150.186 103.964 151.816C107.985 153.446 107.823 156.671 108.075 159.443C108.327 162.215 109.654 162.982 111.933 162.982C114.212 162.982 116.48 164.293 116.48 166.902V193.015Z" fill="#117D77"/>
<path d="M116.48 183.865C116.456 183.87 116.432 183.87 116.408 183.865C116.167 183.797 110.427 182.129 102.066 174.451C93.1619 166.275 88.9619 154.011 88.9171 153.888C88.8957 153.817 88.9023 153.741 88.9358 153.675C88.9692 153.61 89.0267 153.559 89.0964 153.535C89.1662 153.512 89.2423 153.517 89.3083 153.55C89.3744 153.582 89.4249 153.639 89.4491 153.709C89.4883 153.832 93.6492 165.961 102.447 174.037C110.69 181.613 116.497 183.31 116.559 183.327C116.594 183.337 116.627 183.355 116.656 183.378C116.684 183.401 116.708 183.429 116.726 183.461C116.744 183.493 116.755 183.529 116.759 183.565C116.763 183.602 116.759 183.639 116.749 183.674C116.731 183.731 116.695 183.78 116.646 183.814C116.598 183.849 116.54 183.866 116.48 183.865Z" fill="white"/>
<path d="M104.401 176.4C104.345 176.401 104.29 176.384 104.243 176.352C104.197 176.32 104.162 176.274 104.143 176.221C102.346 171.606 101.937 161.734 101.903 161.314C101.902 161.24 101.929 161.168 101.979 161.114C102.029 161.06 102.098 161.027 102.172 161.022C102.245 161.024 102.315 161.052 102.369 161.101C102.423 161.151 102.456 161.218 102.463 161.291C102.463 161.392 102.883 171.489 104.647 176.019C104.661 176.054 104.667 176.091 104.666 176.128C104.666 176.165 104.657 176.201 104.642 176.235C104.627 176.269 104.605 176.3 104.578 176.325C104.551 176.35 104.52 176.37 104.485 176.383C104.458 176.393 104.43 176.399 104.401 176.4Z" fill="white"/>
<path d="M104.356 183.036C103.84 183.04 103.324 183.014 102.81 182.958C102.774 182.953 102.738 182.942 102.706 182.923C102.674 182.905 102.645 182.881 102.622 182.852C102.599 182.823 102.582 182.789 102.572 182.754C102.562 182.718 102.56 182.681 102.564 182.644C102.568 182.607 102.58 182.572 102.598 182.539C102.616 182.507 102.641 182.479 102.67 182.456C102.699 182.433 102.732 182.416 102.768 182.406C102.804 182.396 102.841 182.393 102.878 182.398C102.928 182.398 108.142 182.991 110.533 180.555C110.558 180.526 110.588 180.502 110.623 180.485C110.658 180.468 110.695 180.458 110.734 180.456C110.773 180.454 110.811 180.461 110.847 180.474C110.883 180.488 110.916 180.509 110.943 180.536C110.971 180.564 110.992 180.596 111.007 180.632C111.021 180.668 111.028 180.706 111.027 180.745C111.025 180.783 111.016 180.821 111 180.856C110.983 180.891 110.96 180.922 110.93 180.947C109.2 182.734 106.182 183.036 104.356 183.036Z" fill="white"/>
<path d="M100.324 76.9944L99.7194 73.5056L96.6058 75.5552C96.3213 74.9952 95.918 74.5041 95.4242 74.116L96.9138 70.084L94.1138 69.4624L92.0642 73.3824C91.3227 73.5075 90.6037 73.7415 89.9306 74.0768L89.0402 71.12L85.7138 73.7352L85.9322 77.2072C85.2548 77.966 84.6405 78.7788 84.0954 79.6376L81.3514 79.4976L79.425 83.8152L81.7826 84.8232C81.5364 85.7163 81.3807 86.6318 81.3178 87.556L78.3218 90.3112L78.921 93.8056L82.0402 91.756C82.323 92.3155 82.7266 92.8051 83.2218 93.1896L81.7602 97.2272L84.5602 97.8432L87.4946 94.9872C88.1722 94.8808 88.0042 93.604 88.7434 93.24L89.6338 96.1856L92.9546 93.576L92.8706 92.2096C93.5426 91.4592 96.085 89.8072 96.6338 88.9448L97.3226 87.8248L99.249 83.5072L98.353 81.8832L97.3562 79.7664L100.324 76.9944ZM90.1602 88.48C87.6066 90.4848 86.8002 90.9272 86.369 88.2448C85.9378 85.5624 87.3994 81.4856 89.953 79.4752C92.5066 77.4648 93.481 77.3248 93.9402 80.0016C94.3994 82.6784 92.7194 86.4976 90.1602 88.48Z" fill="#E0E0E0"/>
<path d="M94.136 69.4624L97.7704 71.5568L95.7208 75.4656L92.0864 73.3712L94.136 69.4624Z" fill="#F5F5F5"/>
<path d="M103.353 75.6L100.24 77.6496L96.6055 75.5552L99.7191 73.5056L103.353 75.6Z" fill="#F5F5F5"/>
<path d="M102.855 85.5848L100.498 84.5824L96.8633 82.488L99.2209 83.4904L102.855 85.5848Z" fill="#E0E0E0"/>
<path d="M81.7544 97.2273L85.3888 99.3161L86.8784 95.2841L83.244 93.1897L81.7544 97.2273Z" fill="#E0E0E0"/>
<path d="M93.2345 98.2802L89.6057 96.1858L88.7153 93.2402L92.3497 95.3346L93.2345 98.2802Z" fill="#E0E0E0"/>
<path d="M103.953 79.0889L103.354 75.6001L100.24 77.6497C99.9535 77.0895 99.5484 76.5984 99.0529 76.2105L100.543 72.1785L97.7705 71.5569L95.7153 75.4769C94.9738 75.602 94.2548 75.836 93.5817 76.1713L92.6969 73.2257L89.3705 75.8409L89.5889 79.3129C88.9108 80.077 88.2965 80.8955 87.7521 81.7601L85.0025 81.6201L83.0761 85.9377L85.4337 86.9457C85.1898 87.8411 85.0341 88.7583 84.9689 89.6841L81.9785 92.4001L82.5777 95.8945L85.6913 93.8449C85.978 94.4035 86.3831 94.8927 86.8785 95.2785L85.3889 99.3105L88.1889 99.9321L90.2385 96.0121C90.9829 95.8884 91.7042 95.6524 92.3777 95.3121L93.2625 98.2577L96.5889 95.6481L96.3705 92.1761C97.0479 91.4173 97.6622 90.6045 98.2073 89.7457L100.957 89.8801L102.883 85.5625L100.492 84.5601C100.74 83.6653 100.898 82.7479 100.963 81.8217L103.953 79.0889ZM93.8001 90.5969C91.2521 92.6017 88.8105 92.0585 88.3457 89.3817C87.8809 86.7049 89.5777 82.9025 92.1313 80.8977C94.6849 78.8929 97.1209 79.4417 97.5857 82.1185C98.0505 84.7953 96.3537 88.5921 93.8001 90.5969Z" fill="#EBEBEB"/>
<path d="M92.6966 73.2145L89.0622 71.1201L85.7358 73.7353L89.3702 75.8297L92.6966 73.2145Z" fill="#F5F5F5"/>
<path d="M85.7358 73.7354L85.9542 77.2073L89.5886 79.3018L89.3702 75.8298L85.7358 73.7354Z" fill="#E0E0E0"/>
<path d="M87.7519 81.7322L84.1175 79.6378L81.3735 79.5034L85.0023 81.5978L87.7519 81.7322Z" fill="#F5F5F5"/>
<path d="M81.3737 79.5034L79.4473 83.8154L83.0761 85.9098L85.0025 81.5978L81.3737 79.5034Z" fill="#E0E0E0"/>
<path d="M84.9686 89.6505L81.3398 87.5562L78.3438 90.3114L81.9726 92.4057L84.9686 89.6505Z" fill="#F5F5F5"/>
<path d="M82.5774 95.9001L78.943 93.8057L78.3438 90.3113L81.9726 92.4057L82.5774 95.9001Z" fill="#E0E0E0"/>
<path d="M97.7706 71.5568L94.1362 69.4624L96.9138 70.084L100.543 72.1784L97.7706 71.5568Z" fill="#F5F5F5"/>
<path d="M84.0504 61.1577V55.9441L79.9008 57.8145C79.681 56.93 79.3014 56.093 78.7808 55.3449L81.396 50.0753L78.204 48.2329L74.9448 53.1329C74.0365 53.0536 73.1214 53.1428 72.2456 53.3961L71.7864 48.8657L67.2728 51.4753L66.8192 56.5153C65.8369 57.3857 64.9336 58.3415 64.12 59.3713L60.8608 58.2513L57.6688 63.7841L60.2784 66.0241C59.7962 67.2435 59.4214 68.5027 59.1584 69.7873L55.0088 72.7049V77.9241L59.1584 76.0537C59.3782 76.9383 59.7577 77.7752 60.2784 78.5233L57.68 83.7985L60.872 85.6409L64.1312 80.7409C65.0394 80.82 65.9545 80.7308 66.8304 80.4777L67.284 85.0081L71.7976 82.3985L72.2568 77.3585C73.6656 76.8445 74.9135 75.9675 75.8744 74.8161L78.2152 75.6393L81.4072 70.1121L79.4472 68.4321C79.8727 67.0312 80.0304 65.5626 79.912 64.1033L84.0504 61.1577ZM69.5296 74.1833C66.0688 76.1825 63.9296 74.7433 63.9296 70.7617C63.9296 66.7801 66.7912 61.8577 70.2576 59.8585C73.724 57.8593 75.8184 59.2985 75.8184 63.3137C75.8184 67.3289 72.996 72.1785 69.5296 74.1833Z" fill="#E0E0E0"/>
<path d="M81.8328 50.3217L78.204 48.2329L74.9448 53.1329L78.5736 55.2273L81.8328 50.3217Z" fill="#F5F5F5"/>
<path d="M87.6849 58.0385L84.0505 55.9441L79.9009 57.8145L83.5353 59.9089L87.6849 58.0385Z" fill="#F5F5F5"/>
<path d="M70.9017 87.1026L67.2729 85.0082L66.8193 80.4778L70.4481 82.5722L70.9017 87.1026Z" fill="#E0E0E0"/>
<path d="M57.6631 83.7984L61.2975 85.8928L63.9127 80.6232L60.2783 78.5288L57.6631 83.7984Z" fill="#E0E0E0"/>
<path d="M87.6847 63.2802V58.0666L83.5351 59.9202C83.3176 59.0349 82.9378 58.1975 82.4151 57.4506L85.0303 52.181L81.8383 50.333L78.5791 55.2386C77.6708 55.1565 76.7552 55.2458 75.8799 55.5018L75.4207 50.9602L70.9071 53.5698L70.4479 58.6098C69.467 59.4817 68.5638 60.4373 67.7487 61.4658L64.4895 60.3458L61.2975 65.8786L63.9127 68.1186C63.4279 69.3371 63.0531 70.5965 62.7927 71.8818L58.6431 74.7994V80.0186L62.7927 78.1482C63.01 79.0336 63.3898 79.871 63.9127 80.6178L61.2975 85.8874L64.4895 87.7298L67.7487 82.8298C68.6569 82.9092 69.572 82.8199 70.4479 82.5666L70.9071 87.097L75.4207 84.4874L75.8743 79.4474C76.8566 78.577 77.7598 77.6213 78.5735 76.5914L81.8327 77.7114L85.0247 72.1842L82.4095 69.9442C82.8941 68.7256 83.2689 67.4662 83.5295 66.181L87.6847 63.2802ZM73.1639 76.3058C69.6975 78.305 66.8863 76.681 66.8863 72.6826C66.8863 68.6842 69.6863 63.8178 73.1639 61.813C76.6415 59.8082 79.4359 61.4378 79.4359 65.4362C79.4359 69.4346 76.6247 74.273 73.1639 76.2778V76.3058Z" fill="#EBEBEB"/>
<path d="M64.12 59.3826L67.7488 61.477L64.4896 60.3402L60.8608 58.2402L64.12 59.3826Z" fill="#F0F0F0"/>
<path d="M60.8603 58.2458L57.6675 63.7805L61.3007 65.8764L64.4935 60.3418L60.8603 58.2458Z" fill="#F5F5F5"/>
<path d="M57.6631 63.7729L61.2975 65.8674L63.9127 68.1186L60.2783 66.0298L57.6631 63.7729Z" fill="#E0E0E0"/>
<path d="M59.1584 69.793L62.7928 71.8874L58.6432 74.805L55.0088 72.7106L59.1584 69.793Z" fill="#F5F5F5"/>
<path d="M55.0088 72.7104L58.6432 74.8049V80.024L55.0088 77.9297V72.7104Z" fill="#E0E0E0"/>
<path d="M75.4209 50.9601L71.7866 48.8657L67.2729 51.4753L70.9018 53.5697L75.4209 50.9601Z" fill="#F5F5F5"/>
<path d="M122.013 200.508L174.653 170.111C174.769 170.07 174.869 169.995 174.94 169.894C175.011 169.794 175.049 169.674 175.049 169.551C175.049 169.428 175.011 169.308 174.94 169.208C174.869 169.108 174.769 169.032 174.653 168.991L169.786 166.191C169.485 166.039 169.152 165.96 168.815 165.96C168.477 165.96 168.144 166.039 167.843 166.191L115.186 196.56C115.07 196.601 114.97 196.676 114.899 196.777C114.828 196.877 114.79 196.997 114.79 197.12C114.79 197.243 114.828 197.363 114.899 197.463C114.97 197.563 115.07 197.639 115.186 197.68L120.069 200.48C120.369 200.636 120.7 200.72 121.038 200.725C121.375 200.729 121.709 200.655 122.013 200.508Z" fill="#E0E0E0"/>
<path d="M173.208 52.752L125.742 80.1584C125.037 80.6189 124.449 81.2391 124.028 81.9688C123.607 82.6985 123.363 83.5171 123.317 84.3584V196.958C123.317 198.503 124.404 199.13 125.742 198.358L173.208 170.951C173.914 170.492 174.502 169.872 174.924 169.142C175.345 168.412 175.588 167.593 175.633 166.751V54.152C175.633 52.6064 174.552 51.9792 173.208 52.752Z" fill="#455A64"/>
<path d="M125.742 80.1583L173.208 52.7519C174.406 52.0575 175.397 52.4887 175.599 53.6927C175.487 52.9357 175.216 52.211 174.804 51.5663C174.392 50.9215 173.848 50.3713 173.208 49.9519L171.237 48.8319C170.485 48.4506 169.654 48.252 168.812 48.252C167.969 48.252 167.138 48.4506 166.387 48.8319L118.916 76.2159C118.201 76.6642 117.611 77.2866 117.202 78.0247L124.029 81.9447C124.437 81.2124 125.027 80.5973 125.742 80.1583Z" fill="#37474F"/>
<path d="M116.48 193.015C116.526 193.856 116.769 194.675 117.191 195.405C117.612 196.134 118.199 196.755 118.905 197.215L120.882 198.335C121.566 198.677 122.315 198.871 123.079 198.904C123.843 198.937 124.606 198.808 125.317 198.526C124.197 198.962 123.306 198.318 123.306 196.935V84.3583C123.334 83.5134 123.579 82.69 124.018 81.9671L117.191 78.0471C116.759 78.7645 116.514 79.5792 116.48 80.4159V193.015Z" fill="#263238"/>
<path d="M127.047 95.1606L171.92 69.2606C172.726 68.8014 173.376 69.1766 173.376 70.1006V153.44C173.349 153.945 173.203 154.436 172.95 154.874C172.697 155.312 172.344 155.684 171.92 155.96L127.064 181.86C126.258 182.325 125.608 181.949 125.608 181.02V97.6806C125.633 97.1772 125.777 96.6867 126.027 96.249C126.277 95.8112 126.626 95.4384 127.047 95.1606Z" fill="white"/>
<path d="M149.475 70.7223C149.228 70.8849 149.021 71.1034 148.874 71.3602C148.726 71.617 148.64 71.9049 148.624 72.2007C148.624 72.7607 149.005 72.9679 149.475 72.6935C149.724 72.5319 149.931 72.3137 150.079 72.0567C150.227 71.7997 150.311 71.5113 150.326 71.2151C150.326 70.6719 149.946 70.4535 149.475 70.7223Z" fill="#37474F"/>
<path d="M149.475 172.894C148.496 173.535 147.682 174.397 147.098 175.411C146.514 176.424 146.178 177.561 146.115 178.73C146.115 180.874 147.622 181.748 149.475 180.673C150.454 180.032 151.268 179.17 151.852 178.156C152.435 177.142 152.772 176.006 152.835 174.838C152.846 172.693 151.334 171.819 149.475 172.894Z" fill="#37474F"/>
<path d="M141.417 79.3912C140.925 79.7179 140.516 80.1557 140.224 80.6693C139.933 81.1829 139.766 81.758 139.737 82.348C139.737 83.4344 140.498 83.8768 141.417 83.3336C141.914 83.01 142.328 82.5735 142.625 82.0597C142.922 81.5459 143.093 80.9693 143.125 80.3768C143.125 79.2904 142.363 78.848 141.417 79.3912Z" fill="#37474F"/>
<path d="M145.6 79.0215C145.6 79.7495 146.16 80.0239 146.815 79.6375L158.015 73.1583C158.362 72.9416 158.653 72.6461 158.864 72.2958C159.075 71.9455 159.201 71.5502 159.23 71.1423C159.23 70.4199 158.671 70.1455 158.015 70.5319L146.815 77.0111C146.469 77.2272 146.179 77.5218 145.968 77.8711C145.756 78.2204 145.631 78.6145 145.6 79.0215Z" fill="#37474F"/>
<path d="M120.266 98.7671C120.663 99.026 120.994 99.3749 121.231 99.7855C121.469 100.196 121.606 100.657 121.632 101.13C121.632 102.004 121.022 102.357 120.266 101.92C119.87 101.66 119.54 101.311 119.304 100.9C119.067 100.49 118.931 100.03 118.905 99.5568C118.905 98.6888 119.515 98.3359 120.266 98.7671Z" fill="#37474F"/>
<path d="M120.266 109.284C120.663 109.543 120.994 109.892 121.231 110.302C121.469 110.713 121.606 111.173 121.632 111.647C121.632 112.515 121.022 112.868 120.266 112.437C119.87 112.177 119.54 111.828 119.304 111.417C119.067 111.007 118.931 110.546 118.905 110.073C118.905 109.2 119.515 108.847 120.266 109.284Z" fill="#37474F"/>
<path d="M119.84 98.9798C120.237 99.2387 120.568 99.5875 120.806 99.9981C121.043 100.409 121.18 100.869 121.206 101.343C121.206 102.211 120.596 102.564 119.84 102.133C119.443 101.874 119.112 101.525 118.874 101.114C118.637 100.704 118.5 100.243 118.474 99.7694C118.479 98.8958 119.09 98.5598 119.84 98.9798Z" fill="#455A64"/>
<path d="M119.84 109.491C120.238 109.75 120.569 110.1 120.807 110.512C121.044 110.923 121.181 111.385 121.206 111.86C121.206 112.728 120.596 113.081 119.84 112.644C119.442 112.386 119.11 112.037 118.873 111.627C118.635 111.216 118.498 110.754 118.474 110.281C118.479 109.413 119.09 109.06 119.84 109.491Z" fill="#455A64"/>
<path d="M182.459 72.7384C182.459 71.8088 181.809 71.4336 181.003 71.8984L175.633 74.9952L136.147 97.7984C135.723 98.074 135.37 98.4459 135.117 98.8838C134.864 99.3218 134.718 99.8133 134.691 100.318V183.635C134.691 184.565 135.341 184.94 136.147 184.475L175.649 161.666L181.003 158.575C181.427 158.3 181.78 157.928 182.033 157.49C182.286 157.052 182.432 156.56 182.459 156.055V72.7384Z" fill="white"/>
<path d="M183.019 72.7383C183.054 72.4575 183.006 72.1725 182.88 71.919C182.754 71.6655 182.556 71.4547 182.311 71.3131C182.066 71.1714 181.785 71.1052 181.502 71.1226C181.22 71.14 180.949 71.2404 180.723 71.4111L175.599 74.3735L135.867 97.3335C135.355 97.6564 134.93 98.0988 134.628 98.6227C134.325 99.1466 134.155 99.7362 134.131 100.341V183.635C134.108 183.915 134.162 184.195 134.286 184.447C134.411 184.698 134.601 184.911 134.837 185.063C135.037 185.18 135.265 185.24 135.497 185.237C135.826 185.226 136.146 185.132 136.427 184.962L176.187 162.002L181.3 159.051C181.808 158.725 182.231 158.282 182.533 157.759C182.836 157.235 183.008 156.647 183.036 156.044L183.019 72.7383ZM175.61 161.045L175.151 161.313L135.889 183.982C135.823 184.033 135.747 184.068 135.666 184.086C135.584 184.103 135.5 184.102 135.419 184.083C135.346 184.038 135.273 183.881 135.273 183.624V100.318C135.302 99.9117 135.423 99.517 135.627 99.1639C135.831 98.8108 136.112 98.5085 136.449 98.2799L175.672 75.5999L181.272 72.3575C181.338 72.3068 181.414 72.2714 181.496 72.254C181.577 72.2366 181.661 72.2375 181.742 72.2567C181.815 72.3015 181.888 72.4583 181.888 72.7159V156.055C181.859 156.462 181.738 156.856 181.534 157.21C181.33 157.563 181.049 157.865 180.712 158.093L175.599 161.045H175.61Z" fill="#117D77"/>
<path d="M158.575 92.0975C163.615 89.1967 167.675 91.5375 167.675 97.3559C167.675 103.174 163.598 110.236 158.575 113.114C153.552 115.993 149.475 113.674 149.475 107.862C149.475 102.049 153.552 95.0039 158.575 92.0975Z" fill="#117D77"/>
<path d="M158.575 96.6672C160.205 95.7264 161.526 96.488 161.526 98.3472C161.471 99.3714 161.175 100.368 160.662 101.256C160.149 102.145 159.434 102.9 158.575 103.46C156.946 104.401 155.624 103.639 155.624 101.78C155.679 100.756 155.975 99.759 156.488 98.8707C157.001 97.9823 157.716 97.2274 158.575 96.6672Z" fill="#117D77"/>
<path d="M164.326 106.702C164.326 103.611 162.159 102.357 159.477 103.902L157.797 104.871C155.12 106.417 152.947 110.18 152.947 113.271V114.105C154.498 114.615 156.447 114.341 158.547 113.114C160.874 111.679 162.841 109.731 164.298 107.419L164.326 106.702Z" fill="#117D77"/>
<path opacity="0.7" d="M158.575 96.6672C160.205 95.7264 161.526 96.488 161.526 98.3472C161.471 99.3714 161.175 100.368 160.662 101.256C160.149 102.145 159.434 102.9 158.575 103.46C156.946 104.401 155.624 103.639 155.624 101.78C155.679 100.756 155.975 99.759 156.488 98.8707C157.001 97.9823 157.716 97.2274 158.575 96.6672Z" fill="white"/>
<path opacity="0.7" d="M164.326 106.702C164.326 103.611 162.159 102.357 159.477 103.902L157.797 104.871C155.12 106.417 152.947 110.18 152.947 113.271V114.105C154.498 114.615 156.447 114.341 158.547 113.114C160.874 111.679 162.841 109.731 164.298 107.419L164.326 106.702Z" fill="white"/>
<path d="M140.969 125.91L152.678 119.151C153.238 118.843 153.647 119.089 153.647 119.711V120.097C153.629 120.434 153.532 120.762 153.364 121.053C153.196 121.345 152.961 121.593 152.678 121.777L140.969 128.537C140.437 128.845 140 128.593 140 127.977V127.59C140.018 127.254 140.115 126.926 140.284 126.634C140.452 126.343 140.687 126.094 140.969 125.91Z" fill="#117D77"/>
<path opacity="0.1" d="M140.969 125.91L152.678 119.151C153.238 118.843 153.647 119.089 153.647 119.711V120.097C153.629 120.434 153.532 120.762 153.364 121.053C153.196 121.345 152.961 121.593 152.678 121.777L140.969 128.537C140.437 128.845 140 128.593 140 127.977V127.59C140.018 127.254 140.115 126.926 140.284 126.634C140.452 126.343 140.687 126.094 140.969 125.91Z" fill="black"/>
<path d="M140.487 134.069L175.913 113.618C176.176 113.461 176.394 113.585 176.394 113.898V118.031C176.385 118.199 176.336 118.362 176.252 118.508C176.169 118.653 176.053 118.778 175.913 118.871L140.487 139.322C140.218 139.479 140 139.35 140 139.042V134.909C140.01 134.741 140.059 134.577 140.143 134.431C140.228 134.285 140.346 134.161 140.487 134.069Z" fill="#117D77"/>
<path opacity="0.2" d="M140.487 134.069L175.913 113.618C176.176 113.461 176.394 113.585 176.394 113.898V118.031C176.385 118.199 176.336 118.362 176.252 118.508C176.169 118.653 176.053 118.778 175.913 118.871L140.487 139.322C140.218 139.479 140 139.35 140 139.042V134.909C140.01 134.741 140.059 134.577 140.143 134.431C140.228 134.285 140.346 134.161 140.487 134.069Z" fill="white"/>
<path d="M140.969 144.295L152.678 137.536C153.238 137.228 153.647 137.48 153.647 138.096V138.482C153.63 138.819 153.533 139.147 153.365 139.439C153.196 139.731 152.961 139.979 152.678 140.162L140.969 146.922C140.437 147.235 140 146.983 140 146.362V145.975C140.019 145.639 140.117 145.312 140.285 145.02C140.453 144.728 140.687 144.48 140.969 144.295Z" fill="#117D77"/>
<path opacity="0.1" d="M140.969 144.295L152.678 137.536C153.238 137.228 153.647 137.48 153.647 138.096V138.482C153.63 138.819 153.533 139.147 153.365 139.439C153.196 139.731 152.961 139.979 152.678 140.162L140.969 146.922C140.437 147.235 140 146.983 140 146.362V145.975C140.019 145.639 140.117 145.312 140.285 145.02C140.453 144.728 140.687 144.48 140.969 144.295Z" fill="black"/>
<path d="M140.487 152.454L175.913 132.003C176.176 131.846 176.394 131.975 176.394 132.283V136.416C176.385 136.584 176.336 136.747 176.252 136.892C176.169 137.038 176.053 137.163 175.913 137.256L140.487 157.707C140.218 157.864 140 157.741 140 157.427V153.294C140.01 153.126 140.059 152.962 140.143 152.816C140.228 152.67 140.346 152.546 140.487 152.454Z" fill="#117D77"/>
<path opacity="0.2" d="M140.487 152.454L175.913 132.003C176.176 131.846 176.394 131.975 176.394 132.283V136.416C176.385 136.584 176.336 136.747 176.252 136.892C176.169 137.038 176.053 137.163 175.913 137.256L140.487 157.707C140.218 157.864 140 157.741 140 157.427V153.294C140.01 153.126 140.059 152.962 140.143 152.816C140.228 152.67 140.346 152.546 140.487 152.454Z" fill="white"/>
<path d="M154.616 154.801L168.616 146.731C169.176 146.418 169.59 146.67 169.59 147.291V151.614C169.572 151.951 169.474 152.279 169.305 152.571C169.135 152.863 168.899 153.111 168.616 153.294L154.616 161.37C154.056 161.678 153.647 161.426 153.647 160.81V156.481C153.666 156.145 153.764 155.818 153.932 155.526C154.101 155.234 154.335 154.986 154.616 154.801Z" fill="#117D77"/>
<path opacity="0.1" d="M154.616 154.801L168.616 146.731C169.176 146.418 169.59 146.67 169.59 147.291V151.614C169.572 151.951 169.474 152.279 169.305 152.571C169.135 152.863 168.899 153.111 168.616 153.294L154.616 161.37C154.056 161.678 153.647 161.426 153.647 160.81V156.481C153.666 156.145 153.764 155.818 153.932 155.526C154.101 155.234 154.335 154.986 154.616 154.801Z" fill="black"/>
<path d="M187.768 136.556C187.768 136.556 180.891 127.07 180.488 125.916C180.169 125.065 180.488 123.799 180.589 123.211C180.69 122.623 180.779 121.313 180.88 120.971C181.048 120.333 180.225 120.462 179.76 121.044C179.295 121.626 179.139 122.791 178.898 122.982C178.657 123.172 176.826 120.501 175.868 119.269C174.91 118.037 174.311 117.286 173.723 117.746C173.303 118.076 173.617 118.793 174.311 119.846C174.717 120.412 175.091 121.001 175.431 121.61C175.538 121.839 174.967 121.856 174.659 122.332C174.418 122.702 174.659 123.301 174.323 123.586C174.116 123.744 173.974 123.972 173.924 124.227C173.875 124.482 173.921 124.746 174.054 124.97C174.677 125.949 175.481 126.8 176.423 127.478C177.453 128.19 177.867 128.442 178.478 129.41C179.088 130.379 184.565 140.274 184.935 140.868C185.304 141.462 186.015 142.671 187.096 142.705C188.177 142.738 197.025 135.122 197.479 134.742C198.935 133.526 199.399 133.353 199.646 134.445C199.731 134.833 199.794 135.226 199.836 135.621C200.01 137.01 200.956 141.971 200.956 141.971C200.956 141.971 205.436 144.138 209.115 143.091C212.795 142.044 214.038 140.482 214.038 140.482L212.195 137.48C212.694 136.242 214.995 131.225 215.74 127.714L204.204 125.849C203.969 125.798 203.588 125.703 203.084 125.574C202.451 125.406 200.844 124.852 199.629 125.916C195.664 129.371 187.779 136.556 187.779 136.556" fill="#FFA8A7"/>
<path d="M210.639 194.762L208.572 197.635C209.511 198.074 210.538 198.294 211.574 198.279C213.427 198.346 213.937 197.719 214.004 197.596C214.318 196.924 213.831 195.714 213.696 194.673L210.639 194.762Z" fill="#37474F"/>
<path d="M208.689 196.258C208.689 196.258 206.181 196.095 204.45 195.882C202.72 195.67 201.348 196.51 201.751 197.221C202.154 197.932 203.112 198.526 204.601 199.024C205.873 199.455 207.401 199.763 208.723 200.144C210.045 200.525 210.963 201.023 211.73 200.754C212.587 200.458 212.957 200.116 212.884 199.489C212.697 198.597 212.465 197.715 212.189 196.846L208.689 196.258Z" fill="#37474F"/>
<path d="M214.004 191.878C214.004 191.878 213.69 194.488 213.668 195.048C213.646 195.608 211.12 195.787 210.638 194.762L210.56 191.57L214.004 191.878Z" fill="#F28F8F"/>
<path d="M211.462 193.48L212.363 197.445C212.363 197.445 212.447 197.926 210.386 198.234C208.326 198.542 205.089 197.154 204.534 196.874C203.98 196.594 203.918 196.028 205.946 196.14C207.973 196.252 208.69 196.258 208.69 196.258L208.029 194.505L211.462 193.48Z" fill="#FFA8A7"/>
<path d="M215.706 127.68L217.134 127.282C217.134 127.282 220.119 136.73 220.45 137.642C220.78 138.555 221.155 139.518 220.511 140.644C219.744 141.982 215.706 147.364 215.706 147.364L213.142 144.855L216.054 139.524L213.478 134.316L215.706 127.68Z" fill="#F28F8F"/>
<path d="M201.04 115.41C200.706 114.782 200.536 114.079 200.546 113.367C200.557 112.655 200.748 111.957 201.102 111.339C202.524 108.702 205.694 107.419 209.468 107.906C211.216 108.136 213.276 109.586 214.402 111.754C215.645 114.156 215.763 118.994 216.082 120.826L201.04 115.41Z" fill="#37474F"/>
<path d="M200.939 116.446C200.939 116.446 200.043 118.154 200.2 118.311C200.432 118.447 200.686 118.541 200.95 118.591L200.939 116.446Z" fill="#FFA8A7"/>
<path d="M203.661 111.048C202.686 111.681 201.006 112.846 200.934 116.682C200.855 120.602 201.415 121.895 201.998 122.349C202.39 122.657 204.691 122.5 205.677 122.27C206.662 122.041 209.502 120.635 210.526 118.502C211.73 115.993 211.484 112.342 209.698 111.222C208.788 110.684 207.758 110.386 206.702 110.356C205.646 110.325 204.599 110.563 203.661 111.048Z" fill="#FFA8A7"/>
<path d="M214.004 140.459C215.729 143.147 217.364 145.499 217.723 148.534C218.462 154.913 216.043 162.204 215.522 166.925C216.501 168.268 217.066 169.868 217.146 171.528C217.146 173.482 214.004 191.878 214.004 191.878C214.004 191.878 211.72 192.573 210.56 191.57L208.404 157.73L209.524 153.608L214.004 140.459Z" fill="#117D77"/>
<path opacity="0.2" d="M214.004 140.459C215.729 143.147 217.364 145.499 217.723 148.534C218.462 154.913 216.043 162.204 215.522 166.925C216.501 168.268 217.066 169.868 217.146 171.528C217.146 173.482 214.004 191.878 214.004 191.878C214.004 191.878 211.72 192.573 210.56 191.57L208.404 157.73L209.524 153.608L214.004 140.459Z" fill="black"/>
<path d="M208.404 157.73L209.524 153.608C211.669 153.044 213.737 152.222 215.684 151.161C215.684 151.161 214.519 153.283 211.171 154.448L209.44 159.74L209.295 171.864L208.404 157.73Z" fill="#117D77"/>
<path opacity="0.3" d="M208.404 157.73L209.524 153.608C211.669 153.044 213.737 152.222 215.684 151.161C215.684 151.161 214.519 153.283 211.171 154.448L209.44 159.74L209.295 171.864L208.404 157.73Z" fill="black"/>
<path d="M214.004 140.459C214.928 141.971 217.135 144.547 216.664 147.028C216.104 150.03 214.48 152.141 209.541 153.608L204.904 170.408C204.904 170.408 207.318 172.648 208.057 174.815C208.796 176.982 211.462 193.491 211.462 193.491C211.462 193.491 210.633 194.841 208.029 194.516C208.029 194.516 198.951 173.796 198.313 172.446C197.538 171.08 197.267 169.485 197.546 167.938C197.831 165.766 200.906 141.982 200.906 141.982L214.004 140.459Z" fill="#117D77"/>
<path opacity="0.2" d="M214.004 140.459C214.928 141.971 217.135 144.547 216.664 147.028C216.104 150.03 214.48 152.141 209.541 153.608L204.904 170.408C204.904 170.408 207.318 172.648 208.057 174.815C208.796 176.982 211.462 193.491 211.462 193.491C211.462 193.491 210.633 194.841 208.029 194.516C208.029 194.516 198.951 173.796 198.313 172.446C197.538 171.08 197.267 169.485 197.546 167.938C197.831 165.766 200.906 141.982 200.906 141.982L214.004 140.459Z" fill="black"/>
<path d="M215.706 127.68L204.17 125.815C203.935 125.765 203.554 125.67 203.05 125.541C203.05 125.541 202.558 132.776 199.595 134.434C199.668 134.781 199.73 135.167 199.786 135.61C199.959 136.998 200.906 141.96 200.906 141.96C200.906 141.96 205.386 144.127 209.065 143.08C212.744 142.033 213.987 140.47 213.987 140.47L212.145 137.469C212.66 136.22 214.978 131.202 215.706 127.68Z" fill="#117D77"/>
<path opacity="0.7" d="M215.706 127.68L204.17 125.815C203.935 125.765 203.554 125.67 203.05 125.541C203.05 125.541 202.558 132.776 199.595 134.434C199.668 134.781 199.73 135.167 199.786 135.61C199.959 136.998 200.906 141.96 200.906 141.96C200.906 141.96 205.386 144.127 209.065 143.08C212.744 142.033 213.987 140.47 213.987 140.47L212.145 137.469C212.66 136.22 214.978 131.202 215.706 127.68Z" fill="white"/>
<path d="M212.666 136.276C211.134 137.196 209.529 137.988 207.867 138.645C209.375 138.615 210.852 138.207 212.162 137.458L212.666 136.276Z" fill="#117D77"/>
<path d="M203.375 111.238C203.375 111.238 202.815 114.878 204.137 117.018C204.137 117.018 204.63 115.567 205.856 115.842C207.082 116.116 207.15 117.734 206.287 118.642C206.068 118.896 205.781 119.084 205.461 119.183C205.14 119.282 204.797 119.288 204.473 119.202C204.473 119.202 204.277 121.834 204.17 124.04C204.064 126.246 203.482 131.057 205.962 133C208.443 134.943 214.67 135.626 217.588 131.55C219.212 129.282 217.056 125.272 216.054 120.775C215.13 116.642 214.609 110.516 210.224 109.53C205.839 108.545 203.375 111.238 203.375 111.238Z" fill="#37474F"/>
<path d="M219.464 61.5049L218.54 62.0649C218.618 61.7362 218.661 61.4002 218.669 61.0625C218.669 59.1865 217.353 58.4305 215.729 59.3825C215.235 59.6806 214.794 60.0592 214.424 60.5025C214.424 57.9825 212.655 56.9577 210.471 58.2177C209.32 58.9683 208.362 59.9795 207.675 61.1695C206.988 62.3594 206.591 63.6945 206.517 65.0665C206.517 65.1953 206.517 65.3185 206.517 65.4417C205.954 65.3709 205.385 65.5019 204.91 65.8113C204.054 66.3689 203.342 67.1205 202.831 68.0049C202.32 68.8894 202.025 69.8818 201.97 70.9017C201.97 71.1388 201.994 71.3753 202.043 71.6073L201.55 71.8929C200.211 72.6657 199.125 74.1721 199.125 75.2529C199.125 76.3337 200.211 76.5913 201.55 75.8129L219.47 65.4809C220.808 64.7081 221.895 63.2017 221.895 62.1209C221.895 61.0401 220.803 60.7265 219.464 61.5049Z" fill="#EBEBEB"/>
</svg>
